<?xml version="1.0" encoding="UTF-8"?>
<svg xmlns="http://www.w3.org/2000/svg" xmlns:xlink="http://www.w3.org/1999/xlink" width="434pt" height="186pt" viewBox="0 0 434 186" version="1.1">
<g id="surface1">
<path style="fill:none;stroke-width:1;stroke-linecap:round;stroke-linejoin:round;stroke:rgb(0%,0%,0%);stroke-opacity:1;stroke-miterlimit:10;" d="M 944.85 162 L 962.85 162 L 962.85 180 L 944.85 180 Z M 944.85 162 " transform="matrix(1.25,0,0,1.25,-1027.5,-145)"/>
<path style=" stroke:none;fill-rule:nonzero;fill:rgb(0%,0%,0%);fill-opacity:1;" d="M 162.152344 70.1875 L 163.148438 70.050781 C 163.265625 70.613281 163.453125 71.015625 163.714844 71.261719 C 163.988281 71.511719 164.324219 71.632812 164.730469 71.632812 C 165.183594 71.632812 165.570312 71.476562 165.882812 71.164062 C 166.207031 70.839844 166.371094 70.4375 166.371094 69.953125 C 166.371094 69.5 166.21875 69.128906 165.921875 68.839844 C 165.632812 68.542969 165.261719 68.390625 164.808594 68.390625 C 164.613281 68.390625 164.378906 68.429688 164.105469 68.507812 L 164.222656 67.628906 C 164.285156 67.644531 164.339844 67.648438 164.378906 67.648438 C 164.792969 67.648438 165.171875 67.539062 165.511719 67.316406 C 165.847656 67.097656 166.019531 66.757812 166.019531 66.300781 C 166.019531 65.9375 165.894531 65.636719 165.648438 65.402344 C 165.398438 65.167969 165.082031 65.050781 164.691406 65.050781 C 164.3125 65.050781 163.992188 65.175781 163.734375 65.421875 C 163.484375 65.65625 163.324219 66.015625 163.246094 66.496094 L 162.25 66.320312 C 162.378906 65.65625 162.652344 65.144531 163.070312 64.777344 C 163.5 64.414062 164.03125 64.230469 164.671875 64.230469 C 165.113281 64.230469 165.515625 64.328125 165.882812 64.523438 C 166.257812 64.707031 166.546875 64.960938 166.742188 65.285156 C 166.9375 65.613281 167.035156 65.957031 167.035156 66.320312 C 167.035156 66.671875 166.9375 66.992188 166.742188 67.277344 C 166.558594 67.566406 166.285156 67.792969 165.921875 67.960938 C 166.402344 68.066406 166.773438 68.292969 167.035156 68.644531 C 167.292969 68.984375 167.425781 69.414062 167.425781 69.933594 C 167.425781 70.636719 167.164062 71.238281 166.644531 71.730469 C 166.136719 72.214844 165.492188 72.453125 164.710938 72.453125 C 164.007812 72.453125 163.421875 72.246094 162.953125 71.828125 C 162.484375 71.414062 162.214844 70.867188 162.152344 70.1875 Z M 162.152344 70.1875 "/>
<path style="fill:none;stroke-width:1;stroke-linecap:round;stroke-linejoin:round;stroke:rgb(0%,0%,0%);stroke-opacity:1;stroke-miterlimit:10;" d="M 926.85 162 L 944.85 162 L 944.85 180 L 926.85 180 Z M 926.85 162 " transform="matrix(1.25,0,0,1.25,-1027.5,-145)"/>
<path style=" stroke:none;fill-rule:nonzero;fill:rgb(0%,0%,0%);fill-opacity:1;" d="M 144.847656 71.359375 L 144.847656 72.316406 L 139.515625 72.316406 C 139.515625 72.082031 139.554688 71.855469 139.632812 71.632812 C 139.773438 71.269531 139.996094 70.910156 140.296875 70.558594 C 140.59375 70.207031 141.023438 69.804688 141.585938 69.347656 C 142.457031 68.621094 143.042969 68.046875 143.34375 67.628906 C 143.65625 67.214844 143.8125 66.816406 143.8125 66.4375 C 143.8125 66.046875 143.667969 65.722656 143.382812 65.460938 C 143.109375 65.1875 142.75 65.050781 142.308594 65.050781 C 141.824219 65.050781 141.441406 65.195312 141.15625 65.480469 C 140.867188 65.769531 140.726562 66.164062 140.726562 66.671875 L 139.710938 66.554688 C 139.773438 65.800781 140.035156 65.226562 140.492188 64.835938 C 140.945312 64.433594 141.558594 64.230469 142.328125 64.230469 C 143.09375 64.230469 143.699219 64.445312 144.144531 64.875 C 144.597656 65.304688 144.828125 65.832031 144.828125 66.457031 C 144.828125 66.785156 144.761719 67.101562 144.632812 67.414062 C 144.5 67.726562 144.28125 68.058594 143.96875 68.410156 C 143.667969 68.75 143.167969 69.21875 142.464844 69.816406 C 141.863281 70.3125 141.480469 70.652344 141.3125 70.832031 C 141.140625 71.015625 141.003906 71.191406 140.902344 71.359375 Z M 144.847656 71.359375 "/>
<path style="fill:none;stroke-width:1;stroke-linecap:round;stroke-linejoin:round;stroke:rgb(0%,0%,0%);stroke-opacity:1;stroke-miterlimit:10;" d="M 944.85 144 L 962.85 144 L 962.85 162 L 944.85 162 Z M 944.85 144 " transform="matrix(1.25,0,0,1.25,-1027.5,-145)"/>
<path style=" stroke:none;fill-rule:nonzero;fill:rgb(0%,0%,0%);fill-opacity:1;" d="M 165.882812 49.816406 L 164.886719 49.816406 L 164.886719 43.507812 C 164.652344 43.742188 164.339844 43.976562 163.949219 44.210938 C 163.558594 44.433594 163.210938 44.597656 162.914062 44.699219 L 162.914062 43.742188 C 163.460938 43.496094 163.941406 43.191406 164.359375 42.824219 C 164.773438 42.449219 165.066406 42.082031 165.238281 41.730469 L 165.882812 41.730469 Z M 165.882812 49.816406 "/>
<path style=" stroke:none;fill-rule:nonzero;fill:rgb(69.803922%,85.098039%,100%);fill-opacity:1;" d="M 131.0625 57.5 L 153.5625 57.5 L 153.5625 35 L 131.0625 35 Z M 131.0625 57.5 "/>
<path style="fill:none;stroke-width:1;stroke-linecap:round;stroke-linejoin:round;stroke:rgb(0%,0%,0%);stroke-opacity:1;stroke-miterlimit:10;" d="M 926.85 144 L 944.85 144 L 944.85 162 L 926.85 162 Z M 926.85 144 " transform="matrix(1.25,0,0,1.25,-1027.5,-145)"/>
<path style=" stroke:none;fill-rule:nonzero;fill:rgb(0%,0%,0%);fill-opacity:1;" d="M 139.652344 45.851562 C 139.652344 44.902344 139.75 44.132812 139.945312 43.546875 C 140.140625 42.960938 140.425781 42.511719 140.804688 42.199219 C 141.195312 41.886719 141.683594 41.730469 142.269531 41.730469 C 142.710938 41.730469 143.09375 41.824219 143.421875 42.003906 C 143.746094 42.175781 144.011719 42.421875 144.222656 42.746094 C 144.429688 43.074219 144.59375 43.46875 144.710938 43.9375 C 144.839844 44.40625 144.90625 45.046875 144.90625 45.851562 C 144.90625 46.789062 144.808594 47.550781 144.613281 48.136719 C 144.417969 48.710938 144.125 49.160156 143.734375 49.484375 C 143.355469 49.796875 142.867188 49.953125 142.269531 49.953125 C 141.5 49.953125 140.894531 49.675781 140.453125 49.113281 C 139.917969 48.449219 139.652344 47.363281 139.652344 45.851562 Z M 140.667969 45.851562 C 140.667969 47.167969 140.816406 48.046875 141.117188 48.488281 C 141.429688 48.917969 141.8125 49.132812 142.269531 49.132812 C 142.722656 49.132812 143.109375 48.917969 143.421875 48.488281 C 143.734375 48.046875 143.890625 47.167969 143.890625 45.851562 C 143.890625 44.523438 143.734375 43.644531 143.421875 43.214844 C 143.109375 42.773438 142.722656 42.550781 142.269531 42.550781 C 141.8125 42.550781 141.449219 42.742188 141.175781 43.117188 C 140.835938 43.613281 140.667969 44.523438 140.667969 45.851562 Z M 140.667969 45.851562 "/>
<path style="fill:none;stroke-width:1;stroke-linecap:round;stroke-linejoin:round;stroke:rgb(0%,0%,0%);stroke-opacity:1;stroke-miterlimit:10;" d="M 857.4 245.8 L 875.4 245.8 L 875.4 263.8 L 857.4 263.8 Z M 857.4 245.8 " transform="matrix(1.25,0,0,1.25,-1027.5,-145)"/>
<path style=" stroke:none;fill-rule:nonzero;fill:rgb(69.803922%,85.098039%,100%);fill-opacity:1;" d="M 44.25 139.75 L 66.75 139.75 L 66.75 117.25 L 44.25 117.25 Z M 44.25 139.75 "/>
<path style="fill:none;stroke-width:1;stroke-linecap:round;stroke-linejoin:round;stroke:rgb(0%,0%,0%);stroke-opacity:1;stroke-miterlimit:10;" d="M 857.4 209.8 L 875.4 209.8 L 875.4 227.8 L 857.4 227.8 Z M 857.4 209.8 " transform="matrix(1.25,0,0,1.25,-1027.5,-145)"/>
<path style=" stroke:none;fill-rule:nonzero;fill:rgb(0%,0%,0%);fill-opacity:1;" d="M 52.839844 128.101562 C 52.839844 127.152344 52.9375 126.382812 53.132812 125.796875 C 53.328125 125.210938 53.613281 124.761719 53.992188 124.449219 C 54.382812 124.136719 54.871094 123.980469 55.457031 123.980469 C 55.898438 123.980469 56.28125 124.074219 56.609375 124.253906 C 56.933594 124.425781 57.199219 124.671875 57.410156 124.996094 C 57.617188 125.324219 57.78125 125.71875 57.898438 126.1875 C 58.027344 126.65625 58.09375 127.296875 58.09375 128.101562 C 58.09375 129.039062 57.996094 129.800781 57.800781 130.386719 C 57.605469 130.960938 57.3125 131.410156 56.921875 131.734375 C 56.542969 132.046875 56.054688 132.203125 55.457031 132.203125 C 54.6875 132.203125 54.082031 131.925781 53.640625 131.363281 C 53.105469 130.699219 52.839844 129.613281 52.839844 128.101562 Z M 53.855469 128.101562 C 53.855469 129.417969 54.003906 130.296875 54.304688 130.738281 C 54.617188 131.167969 55 131.382812 55.457031 131.382812 C 55.910156 131.382812 56.296875 131.167969 56.609375 130.738281 C 56.921875 130.296875 57.078125 129.417969 57.078125 128.101562 C 57.078125 126.773438 56.921875 125.894531 56.609375 125.464844 C 56.296875 125.023438 55.910156 124.800781 55.457031 124.800781 C 55 124.800781 54.636719 124.992188 54.363281 125.367188 C 54.023438 125.863281 53.855469 126.773438 53.855469 128.101562 Z M 53.855469 128.101562 "/>
<path style=" stroke:none;fill-rule:nonzero;fill:rgb(69.803922%,85.098039%,100%);fill-opacity:1;" d="M 44.25 162.25 L 66.75 162.25 L 66.75 139.75 L 44.25 139.75 Z M 44.25 162.25 "/>
<path style="fill:none;stroke-width:1;stroke-linecap:round;stroke-linejoin:round;stroke:rgb(0%,0%,0%);stroke-opacity:1;stroke-miterlimit:10;" d="M 857.4 227.8 L 875.4 227.8 L 875.4 245.8 L 857.4 245.8 Z M 857.4 227.8 " transform="matrix(1.25,0,0,1.25,-1027.5,-145)"/>
<path style=" stroke:none;fill-rule:nonzero;fill:rgb(0%,0%,0%);fill-opacity:1;" d="M 52.839844 150.601562 C 52.839844 149.652344 52.9375 148.882812 53.132812 148.296875 C 53.328125 147.710938 53.613281 147.261719 53.992188 146.949219 C 54.382812 146.636719 54.871094 146.480469 55.457031 146.480469 C 55.898438 146.480469 56.28125 146.574219 56.609375 146.753906 C 56.933594 146.925781 57.199219 147.171875 57.410156 147.496094 C 57.617188 147.824219 57.78125 148.21875 57.898438 148.6875 C 58.027344 149.15625 58.09375 149.796875 58.09375 150.601562 C 58.09375 151.539062 57.996094 152.300781 57.800781 152.886719 C 57.605469 153.460938 57.3125 153.910156 56.921875 154.234375 C 56.542969 154.546875 56.054688 154.703125 55.457031 154.703125 C 54.6875 154.703125 54.082031 154.425781 53.640625 153.863281 C 53.105469 153.199219 52.839844 152.113281 52.839844 150.601562 Z M 53.855469 150.601562 C 53.855469 151.917969 54.003906 152.796875 54.304688 153.238281 C 54.617188 153.667969 55 153.882812 55.457031 153.882812 C 55.910156 153.882812 56.296875 153.667969 56.609375 153.238281 C 56.921875 152.796875 57.078125 151.917969 57.078125 150.601562 C 57.078125 149.273438 56.921875 148.394531 56.609375 147.964844 C 56.296875 147.523438 55.910156 147.300781 55.457031 147.300781 C 55 147.300781 54.636719 147.492188 54.363281 147.867188 C 54.023438 148.363281 53.855469 149.273438 53.855469 150.601562 Z M 53.855469 150.601562 "/>
<path style="fill:none;stroke-width:1;stroke-linecap:round;stroke-linejoin:round;stroke:rgb(0%,0%,0%);stroke-opacity:1;stroke-miterlimit:10;" d="M 839.4 245.8 L 857.4 245.8 L 857.4 263.8 L 839.4 263.8 Z M 839.4 245.8 " transform="matrix(1.25,0,0,1.25,-1027.5,-145)"/>
<path style="fill:none;stroke-width:1;stroke-linecap:round;stroke-linejoin:round;stroke:rgb(0%,0%,0%);stroke-opacity:1;stroke-miterlimit:10;" d="M 875.4 227.8 L 893.4 227.8 L 893.4 245.8 L 875.4 245.8 Z M 875.4 227.8 " transform="matrix(1.25,0,0,1.25,-1027.5,-145)"/>
<path style=" stroke:none;fill-rule:nonzero;fill:rgb(69.803922%,85.098039%,100%);fill-opacity:1;" d="M 21.75 162.25 L 44.25 162.25 L 44.25 139.75 L 21.75 139.75 Z M 21.75 162.25 "/>
<path style="fill:none;stroke-width:1;stroke-linecap:round;stroke-linejoin:round;stroke:rgb(0%,0%,0%);stroke-opacity:1;stroke-miterlimit:10;" d="M 839.4 227.8 L 857.4 227.8 L 857.4 245.8 L 839.4 245.8 Z M 839.4 227.8 " transform="matrix(1.25,0,0,1.25,-1027.5,-145)"/>
<path style=" stroke:none;fill-rule:nonzero;fill:rgb(0%,0%,0%);fill-opacity:1;" d="M 30.339844 150.601562 C 30.339844 149.652344 30.4375 148.882812 30.632812 148.296875 C 30.828125 147.710938 31.113281 147.261719 31.492188 146.949219 C 31.882812 146.636719 32.371094 146.480469 32.957031 146.480469 C 33.398438 146.480469 33.78125 146.574219 34.109375 146.753906 C 34.433594 146.925781 34.699219 147.171875 34.910156 147.496094 C 35.117188 147.824219 35.28125 148.21875 35.398438 148.6875 C 35.527344 149.15625 35.59375 149.796875 35.59375 150.601562 C 35.59375 151.539062 35.496094 152.300781 35.300781 152.886719 C 35.105469 153.460938 34.8125 153.910156 34.421875 154.234375 C 34.042969 154.546875 33.554688 154.703125 32.957031 154.703125 C 32.1875 154.703125 31.582031 154.425781 31.140625 153.863281 C 30.605469 153.199219 30.339844 152.113281 30.339844 150.601562 Z M 31.355469 150.601562 C 31.355469 151.917969 31.503906 152.796875 31.804688 153.238281 C 32.117188 153.667969 32.5 153.882812 32.957031 153.882812 C 33.410156 153.882812 33.796875 153.667969 34.109375 153.238281 C 34.421875 152.796875 34.578125 151.917969 34.578125 150.601562 C 34.578125 149.273438 34.421875 148.394531 34.109375 147.964844 C 33.796875 147.523438 33.410156 147.300781 32.957031 147.300781 C 32.5 147.300781 32.136719 147.492188 31.863281 147.867188 C 31.523438 148.363281 31.355469 149.273438 31.355469 150.601562 Z M 31.355469 150.601562 "/>
<path style="fill:none;stroke-width:1;stroke-linecap:round;stroke-linejoin:round;stroke:rgb(0%,0%,0%);stroke-opacity:1;stroke-miterlimit:10;" d="M 875.4 245.8 L 893.4 245.8 L 893.4 263.8 L 875.4 263.8 Z M 875.4 245.8 " transform="matrix(1.25,0,0,1.25,-1027.5,-145)"/>
<path style="fill:none;stroke-width:1;stroke-linecap:round;stroke-linejoin:round;stroke:rgb(0%,0%,0%);stroke-opacity:1;stroke-miterlimit:10;" d="M 875.4 209.8 L 893.4 209.8 L 893.4 227.8 L 875.4 227.8 Z M 875.4 209.8 " transform="matrix(1.25,0,0,1.25,-1027.5,-145)"/>
<path style=" stroke:none;fill-rule:nonzero;fill:rgb(69.803922%,85.098039%,100%);fill-opacity:1;" d="M 21.75 139.75 L 44.25 139.75 L 44.25 117.25 L 21.75 117.25 Z M 21.75 139.75 "/>
<path style="fill:none;stroke-width:1;stroke-linecap:round;stroke-linejoin:round;stroke:rgb(0%,0%,0%);stroke-opacity:1;stroke-miterlimit:10;" d="M 839.4 209.8 L 857.4 209.8 L 857.4 227.8 L 839.4 227.8 Z M 839.4 209.8 " transform="matrix(1.25,0,0,1.25,-1027.5,-145)"/>
<path style=" stroke:none;fill-rule:nonzero;fill:rgb(0%,0%,0%);fill-opacity:1;" d="M 30.339844 128.101562 C 30.339844 127.152344 30.4375 126.382812 30.632812 125.796875 C 30.828125 125.210938 31.113281 124.761719 31.492188 124.449219 C 31.882812 124.136719 32.371094 123.980469 32.957031 123.980469 C 33.398438 123.980469 33.78125 124.074219 34.109375 124.253906 C 34.433594 124.425781 34.699219 124.671875 34.910156 124.996094 C 35.117188 125.324219 35.28125 125.71875 35.398438 126.1875 C 35.527344 126.65625 35.59375 127.296875 35.59375 128.101562 C 35.59375 129.039062 35.496094 129.800781 35.300781 130.386719 C 35.105469 130.960938 34.8125 131.410156 34.421875 131.734375 C 34.042969 132.046875 33.554688 132.203125 32.957031 132.203125 C 32.1875 132.203125 31.582031 131.925781 31.140625 131.363281 C 30.605469 130.699219 30.339844 129.613281 30.339844 128.101562 Z M 31.355469 128.101562 C 31.355469 129.417969 31.503906 130.296875 31.804688 130.738281 C 32.117188 131.167969 32.5 131.382812 32.957031 131.382812 C 33.410156 131.382812 33.796875 131.167969 34.109375 130.738281 C 34.421875 130.296875 34.578125 129.417969 34.578125 128.101562 C 34.578125 126.773438 34.421875 125.894531 34.109375 125.464844 C 33.796875 125.023438 33.410156 124.800781 32.957031 124.800781 C 32.5 124.800781 32.136719 124.992188 31.863281 125.367188 C 31.523438 125.863281 31.355469 126.773438 31.355469 128.101562 Z M 31.355469 128.101562 "/>
<path style=" stroke:none;fill-rule:nonzero;fill:rgb(69.803922%,85.098039%,100%);fill-opacity:1;" d="M 277.3125 81.25 L 299.8125 81.25 L 299.8125 58.75 L 277.3125 58.75 Z M 277.3125 81.25 "/>
<path style="fill:none;stroke-width:1;stroke-linecap:round;stroke-linejoin:round;stroke:rgb(0%,0%,0%);stroke-opacity:1;stroke-miterlimit:10;" d="M 1043.85 163 L 1061.85 163 L 1061.85 181 L 1043.85 181 Z M 1043.85 163 " transform="matrix(1.25,0,0,1.25,-1027.5,-145)"/>
<path style=" stroke:none;fill-rule:nonzero;fill:rgb(0%,0%,0%);fill-opacity:1;" d="M 291.097656 72.609375 L 291.097656 73.566406 L 285.765625 73.566406 C 285.765625 73.332031 285.804688 73.105469 285.882812 72.882812 C 286.023438 72.519531 286.246094 72.160156 286.546875 71.808594 C 286.84375 71.457031 287.273438 71.054688 287.835938 70.597656 C 288.707031 69.871094 289.292969 69.296875 289.59375 68.878906 C 289.90625 68.464844 290.0625 68.066406 290.0625 67.6875 C 290.0625 67.296875 289.917969 66.972656 289.632812 66.710938 C 289.359375 66.4375 289 66.300781 288.558594 66.300781 C 288.074219 66.300781 287.691406 66.445312 287.40625 66.730469 C 287.117188 67.019531 286.976562 67.414062 286.976562 67.921875 L 285.960938 67.804688 C 286.023438 67.050781 286.285156 66.476562 286.742188 66.085938 C 287.195312 65.683594 287.808594 65.480469 288.578125 65.480469 C 289.34375 65.480469 289.949219 65.695312 290.394531 66.125 C 290.847656 66.554688 291.078125 67.082031 291.078125 67.707031 C 291.078125 68.035156 291.011719 68.351562 290.882812 68.664062 C 290.75 68.976562 290.53125 69.308594 290.21875 69.660156 C 289.917969 70 289.417969 70.46875 288.714844 71.066406 C 288.113281 71.5625 287.730469 71.902344 287.5625 72.082031 C 287.390625 72.265625 287.253906 72.441406 287.152344 72.609375 Z M 291.097656 72.609375 "/>
<path style=" stroke:none;fill-rule:nonzero;fill:rgb(69.803922%,85.098039%,100%);fill-opacity:1;" d="M 299.8125 81.25 L 322.3125 81.25 L 322.3125 58.75 L 299.8125 58.75 Z M 299.8125 81.25 "/>
<path style="fill:none;stroke-width:1;stroke-linecap:round;stroke-linejoin:round;stroke:rgb(0%,0%,0%);stroke-opacity:1;stroke-miterlimit:10;" d="M 1061.85 163 L 1079.85 163 L 1079.85 181 L 1061.85 181 Z M 1061.85 163 " transform="matrix(1.25,0,0,1.25,-1027.5,-145)"/>
<path style=" stroke:none;fill-rule:nonzero;fill:rgb(0%,0%,0%);fill-opacity:1;" d="M 308.402344 71.4375 L 309.398438 71.300781 C 309.515625 71.863281 309.703125 72.265625 309.964844 72.511719 C 310.238281 72.761719 310.574219 72.882812 310.980469 72.882812 C 311.433594 72.882812 311.820312 72.726562 312.132812 72.414062 C 312.457031 72.089844 312.621094 71.6875 312.621094 71.203125 C 312.621094 70.75 312.46875 70.378906 312.171875 70.089844 C 311.882812 69.792969 311.511719 69.640625 311.058594 69.640625 C 310.863281 69.640625 310.628906 69.679688 310.355469 69.757812 L 310.472656 68.878906 C 310.535156 68.894531 310.589844 68.898438 310.628906 68.898438 C 311.042969 68.898438 311.421875 68.789062 311.761719 68.566406 C 312.097656 68.347656 312.269531 68.007812 312.269531 67.550781 C 312.269531 67.1875 312.144531 66.886719 311.898438 66.652344 C 311.648438 66.417969 311.332031 66.300781 310.941406 66.300781 C 310.5625 66.300781 310.242188 66.425781 309.984375 66.671875 C 309.734375 66.90625 309.574219 67.265625 309.496094 67.746094 L 308.5 67.570312 C 308.628906 66.90625 308.902344 66.394531 309.320312 66.027344 C 309.75 65.664062 310.28125 65.480469 310.921875 65.480469 C 311.363281 65.480469 311.765625 65.578125 312.132812 65.773438 C 312.507812 65.957031 312.796875 66.210938 312.992188 66.535156 C 313.1875 66.863281 313.285156 67.207031 313.285156 67.570312 C 313.285156 67.921875 313.1875 68.242188 312.992188 68.527344 C 312.808594 68.816406 312.535156 69.042969 312.171875 69.210938 C 312.652344 69.316406 313.023438 69.542969 313.285156 69.894531 C 313.542969 70.234375 313.675781 70.664062 313.675781 71.183594 C 313.675781 71.886719 313.414062 72.488281 312.894531 72.980469 C 312.386719 73.464844 311.742188 73.703125 310.960938 73.703125 C 310.257812 73.703125 309.671875 73.496094 309.203125 73.078125 C 308.734375 72.664062 308.464844 72.117188 308.402344 71.4375 Z M 308.402344 71.4375 "/>
<path style=" stroke:none;fill-rule:nonzero;fill:rgb(69.803922%,85.098039%,100%);fill-opacity:1;" d="M 299.8125 58.75 L 322.3125 58.75 L 322.3125 36.25 L 299.8125 36.25 Z M 299.8125 58.75 "/>
<path style="fill:none;stroke-width:1;stroke-linecap:round;stroke-linejoin:round;stroke:rgb(0%,0%,0%);stroke-opacity:1;stroke-miterlimit:10;" d="M 1061.85 145 L 1079.85 145 L 1079.85 163 L 1061.85 163 Z M 1061.85 145 " transform="matrix(1.25,0,0,1.25,-1027.5,-145)"/>
<path style=" stroke:none;fill-rule:nonzero;fill:rgb(0%,0%,0%);fill-opacity:1;" d="M 312.132812 51.066406 L 311.136719 51.066406 L 311.136719 44.757812 C 310.902344 44.992188 310.589844 45.226562 310.199219 45.460938 C 309.808594 45.683594 309.460938 45.847656 309.164062 45.949219 L 309.164062 44.992188 C 309.710938 44.746094 310.191406 44.441406 310.609375 44.074219 C 311.023438 43.699219 311.316406 43.332031 311.488281 42.980469 L 312.132812 42.980469 Z M 312.132812 51.066406 "/>
<path style=" stroke:none;fill-rule:nonzero;fill:rgb(69.803922%,85.098039%,100%);fill-opacity:1;" d="M 277.3125 58.75 L 299.8125 58.75 L 299.8125 36.25 L 277.3125 36.25 Z M 277.3125 58.75 "/>
<path style="fill:none;stroke-width:1;stroke-linecap:round;stroke-linejoin:round;stroke:rgb(0%,0%,0%);stroke-opacity:1;stroke-miterlimit:10;" d="M 1043.85 145 L 1061.85 145 L 1061.85 163 L 1043.85 163 Z M 1043.85 145 " transform="matrix(1.25,0,0,1.25,-1027.5,-145)"/>
<path style=" stroke:none;fill-rule:nonzero;fill:rgb(0%,0%,0%);fill-opacity:1;" d="M 285.902344 47.101562 C 285.902344 46.152344 286 45.382812 286.195312 44.796875 C 286.390625 44.210938 286.675781 43.761719 287.054688 43.449219 C 287.445312 43.136719 287.933594 42.980469 288.519531 42.980469 C 288.960938 42.980469 289.34375 43.074219 289.671875 43.253906 C 289.996094 43.425781 290.261719 43.671875 290.472656 43.996094 C 290.679688 44.324219 290.84375 44.71875 290.960938 45.1875 C 291.089844 45.65625 291.15625 46.296875 291.15625 47.101562 C 291.15625 48.039062 291.058594 48.800781 290.863281 49.386719 C 290.667969 49.960938 290.375 50.410156 289.984375 50.734375 C 289.605469 51.046875 289.117188 51.203125 288.519531 51.203125 C 287.75 51.203125 287.144531 50.925781 286.703125 50.363281 C 286.167969 49.699219 285.902344 48.613281 285.902344 47.101562 Z M 286.917969 47.101562 C 286.917969 48.417969 287.066406 49.296875 287.367188 49.738281 C 287.679688 50.167969 288.0625 50.382812 288.519531 50.382812 C 288.972656 50.382812 289.359375 50.167969 289.671875 49.738281 C 289.984375 49.296875 290.140625 48.417969 290.140625 47.101562 C 290.140625 45.773438 289.984375 44.894531 289.671875 44.464844 C 289.359375 44.023438 288.972656 43.800781 288.519531 43.800781 C 288.0625 43.800781 287.699219 43.992188 287.425781 44.367188 C 287.085938 44.863281 286.917969 45.773438 286.917969 47.101562 Z M 286.917969 47.101562 "/>
<path style=" stroke:none;fill-rule:nonzero;fill:rgb(0%,0%,0%);fill-opacity:1;" d="M 389.828125 97.277344 L 389.828125 98.9375 L 388.714844 98.9375 C 388.988281 98.214844 389.261719 97.394531 389.496094 96.476562 L 391.664062 96.476562 L 391.664062 95.714844 L 389.691406 95.714844 C 389.789062 95.265625 389.886719 94.777344 390.003906 94.269531 L 389.261719 94.113281 C 389.144531 94.660156 389.046875 95.207031 388.929688 95.714844 L 387.816406 95.714844 L 387.816406 96.476562 L 388.753906 96.476562 C 388.5 97.472656 388.226562 98.332031 387.894531 98.996094 L 388.070312 99.679688 L 389.828125 99.679688 L 389.828125 101.359375 C 389.164062 101.476562 388.480469 101.59375 387.738281 101.671875 L 387.835938 102.472656 C 388.519531 102.355469 389.183594 102.257812 389.828125 102.121094 L 389.828125 104.464844 L 390.570312 104.464844 L 390.570312 101.964844 L 391.644531 101.691406 L 391.644531 100.929688 C 391.3125 101.007812 390.960938 101.105469 390.570312 101.203125 L 390.570312 99.679688 L 391.605469 99.679688 L 391.605469 98.9375 L 390.570312 98.9375 L 390.570312 97.277344 Z M 393.148438 96.691406 L 393.148438 97.355469 L 396.371094 97.355469 L 396.371094 96.691406 L 393.148438 96.691406 C 393.714844 96.144531 394.261719 95.539062 394.789062 94.894531 C 395.648438 95.988281 396.605469 96.925781 397.660156 97.6875 L 398.089844 97.0625 C 397.074219 96.339844 396.078125 95.382812 395.082031 94.171875 L 394.515625 94.171875 C 393.597656 95.285156 392.5625 96.28125 391.410156 97.121094 L 391.859375 97.804688 C 392.289062 97.453125 392.71875 97.082031 393.148438 96.691406 Z M 393.929688 104.386719 C 394.476562 104.386719 394.769531 104.09375 394.769531 103.507812 L 394.769531 98.253906 L 392.113281 98.253906 L 392.113281 104.464844 L 392.816406 104.464844 L 392.816406 102.355469 L 394.085938 102.355469 L 394.085938 103.371094 C 394.085938 103.605469 393.949219 103.742188 393.714844 103.742188 L 393.207031 103.722656 L 393.382812 104.386719 Z M 392.816406 101.730469 L 392.816406 100.65625 L 394.085938 100.65625 L 394.085938 101.730469 Z M 392.816406 100.03125 L 392.816406 98.917969 L 394.085938 98.917969 L 394.085938 100.03125 Z M 395.433594 98.566406 L 395.433594 102.609375 L 396.078125 102.609375 L 396.078125 98.566406 Z M 396.664062 104.40625 C 397.210938 104.40625 397.484375 104.074219 397.484375 103.429688 L 397.484375 98.058594 L 396.78125 98.058594 L 396.78125 103.253906 C 396.78125 103.566406 396.664062 103.742188 396.410156 103.742188 C 396.136719 103.742188 395.84375 103.722656 395.550781 103.683594 L 395.707031 104.40625 Z M 396.664062 104.40625 "/>
<path style=" stroke:none;fill-rule:nonzero;fill:rgb(0%,0%,0%);fill-opacity:1;" d="M 407.171875 98.058594 L 404.535156 98.058594 L 404.535156 94.132812 L 403.714844 94.132812 L 403.714844 98.058594 L 401.078125 98.058594 L 401.078125 94.992188 L 400.257812 94.992188 L 400.257812 98.839844 L 403.714844 98.839844 L 403.714844 102.980469 L 400.53125 102.980469 L 400.53125 99.894531 L 399.710938 99.894531 L 399.710938 104.386719 L 400.53125 104.386719 L 400.53125 103.742188 L 407.71875 103.742188 L 407.71875 104.386719 L 408.539062 104.386719 L 408.539062 99.894531 L 407.71875 99.894531 L 407.71875 102.980469 L 404.535156 102.980469 L 404.535156 98.839844 L 407.992188 98.839844 L 407.992188 94.992188 L 407.171875 94.992188 Z M 407.171875 98.058594 "/>
<path style=" stroke:none;fill-rule:nonzero;fill:rgb(0%,0%,0%);fill-opacity:1;" d="M 285.867188 14.140625 C 286.21875 14.628906 286.609375 15.273438 287.058594 16.054688 L 287.507812 15.371094 C 286.960938 14.589844 286.414062 13.886719 285.867188 13.261719 L 285.867188 12.539062 L 287.195312 12.539062 L 287.195312 11.757812 L 285.867188 11.757812 L 285.867188 9.570312 L 285.105469 9.570312 L 285.105469 11.757812 L 283.542969 11.757812 L 283.542969 12.539062 L 285.066406 12.539062 C 284.734375 14.023438 284.148438 15.351562 283.347656 16.523438 L 283.699219 17.34375 C 284.265625 16.425781 284.734375 15.390625 285.105469 14.238281 L 285.105469 19.882812 L 285.867188 19.882812 Z M 287.488281 10.800781 L 287.488281 11.523438 L 289.65625 11.523438 C 288.953125 12.753906 288.367188 13.515625 287.917969 13.808594 C 287.878906 13.828125 287.839844 13.847656 287.761719 13.867188 L 287.9375 14.53125 C 288.816406 14.492188 289.65625 14.453125 290.457031 14.414062 C 289.539062 15.449219 288.386719 16.191406 287.039062 16.679688 L 287.46875 17.363281 C 289.65625 16.542969 291.296875 15.019531 292.429688 12.792969 L 291.765625 12.441406 C 291.550781 12.890625 291.277344 13.300781 290.984375 13.710938 C 290.300781 13.769531 289.578125 13.808594 288.875 13.847656 C 289.34375 13.398438 289.871094 12.617188 290.496094 11.523438 L 293.582031 11.523438 L 293.582031 10.800781 L 291.082031 10.800781 C 290.925781 10.332031 290.75 9.902344 290.59375 9.550781 L 289.753906 9.6875 C 289.949219 10.019531 290.144531 10.390625 290.300781 10.800781 Z M 291.082031 17.597656 C 291.921875 18.378906 292.585938 19.121094 293.074219 19.824219 L 293.660156 19.238281 C 293.09375 18.515625 292.390625 17.8125 291.589844 17.089844 C 292.3125 16.347656 292.957031 15.46875 293.503906 14.472656 L 292.820312 14.101562 C 291.492188 16.5625 289.519531 18.242188 286.882812 19.101562 L 287.3125 19.804688 C 288.757812 19.296875 290.007812 18.554688 291.082031 17.597656 Z M 291.082031 17.597656 "/>
<path style=" stroke:none;fill-rule:nonzero;fill:rgb(0%,0%,0%);fill-opacity:1;" d="M 299.539062 9.570312 L 299.539062 14.21875 L 298.601562 14.21875 L 298.601562 15 L 299.539062 15 L 299.539062 18.730469 C 299.539062 18.925781 299.421875 19.0625 299.1875 19.140625 L 299.558594 19.882812 C 300.613281 19.589844 301.550781 19.199219 302.351562 18.730469 L 302.214844 17.949219 C 301.570312 18.339844 300.945312 18.632812 300.320312 18.847656 L 300.320312 15 L 301.53125 15 C 302.195312 17.070312 303.171875 18.632812 304.480469 19.726562 L 305.027344 19.101562 C 303.835938 18.144531 302.898438 16.777344 302.234375 15 L 304.832031 15 L 304.832031 14.21875 L 300.320312 14.21875 L 300.320312 9.570312 Z M 303.835938 10.136719 C 303.191406 11.132812 302.214844 12.03125 300.886719 12.8125 L 301.355469 13.4375 C 302.722656 12.636719 303.71875 11.738281 304.402344 10.722656 Z M 295.90625 13.261719 L 297.976562 13.261719 L 297.976562 10 L 294.8125 10 L 294.8125 10.761719 L 297.195312 10.761719 L 297.195312 12.519531 L 295.183594 12.519531 L 294.832031 15.800781 L 297.351562 15.800781 C 297.351562 17.148438 297.292969 18.027344 297.195312 18.4375 C 297.097656 18.847656 296.707031 19.0625 296.0625 19.0625 C 295.730469 19.0625 295.4375 19.023438 295.144531 19.003906 L 295.339844 19.746094 C 295.632812 19.765625 295.945312 19.804688 296.238281 19.804688 C 297.253906 19.746094 297.820312 19.414062 297.957031 18.769531 C 298.074219 18.183594 298.152344 16.933594 298.152344 15.078125 L 295.691406 15.078125 Z M 295.90625 13.261719 "/>
<path style=" stroke:none;fill-rule:nonzero;fill:rgb(0%,0%,0%);fill-opacity:1;" d="M 307.15625 14.277344 L 307.15625 17.148438 L 310.652344 17.148438 L 310.652344 17.773438 L 306.882812 17.773438 L 306.882812 18.320312 L 310.652344 18.320312 L 310.652344 18.984375 L 306.042969 18.984375 L 306.042969 19.609375 L 316.082031 19.609375 L 316.082031 18.984375 L 311.453125 18.984375 L 311.453125 18.320312 L 315.261719 18.320312 L 315.261719 17.773438 L 311.453125 17.773438 L 311.453125 17.148438 L 314.988281 17.148438 L 314.988281 14.277344 Z M 314.207031 16.640625 L 311.453125 16.640625 L 311.453125 15.957031 L 314.207031 15.957031 Z M 310.652344 16.640625 L 307.9375 16.640625 L 307.9375 15.957031 L 310.652344 15.957031 Z M 307.9375 15.46875 L 307.9375 14.785156 L 310.652344 14.785156 L 310.652344 15.46875 Z M 311.453125 14.785156 L 314.207031 14.785156 L 314.207031 15.46875 L 311.453125 15.46875 Z M 307.410156 9.746094 L 307.410156 12.519531 L 314.753906 12.519531 L 314.753906 9.746094 Z M 313.972656 12.03125 L 308.191406 12.03125 L 308.191406 11.367188 L 313.972656 11.367188 Z M 308.191406 10.878906 L 308.191406 10.234375 L 313.972656 10.234375 L 313.972656 10.878906 Z M 306.023438 13.105469 L 306.023438 13.710938 L 316.101562 13.710938 L 316.101562 13.105469 Z M 306.023438 13.105469 "/>
<path style=" stroke:none;fill-rule:nonzero;fill:rgb(0%,0%,0%);fill-opacity:1;" d="M 144.890625 12.695312 L 144.890625 14.355469 L 143.777344 14.355469 C 144.050781 13.632812 144.324219 12.8125 144.558594 11.894531 L 146.726562 11.894531 L 146.726562 11.132812 L 144.753906 11.132812 C 144.851562 10.683594 144.949219 10.195312 145.066406 9.6875 L 144.324219 9.53125 C 144.207031 10.078125 144.109375 10.625 143.992188 11.132812 L 142.878906 11.132812 L 142.878906 11.894531 L 143.816406 11.894531 C 143.5625 12.890625 143.289062 13.75 142.957031 14.414062 L 143.132812 15.097656 L 144.890625 15.097656 L 144.890625 16.777344 C 144.226562 16.894531 143.542969 17.011719 142.800781 17.089844 L 142.898438 17.890625 C 143.582031 17.773438 144.246094 17.675781 144.890625 17.539062 L 144.890625 19.882812 L 145.632812 19.882812 L 145.632812 17.382812 L 146.707031 17.109375 L 146.707031 16.347656 C 146.375 16.425781 146.023438 16.523438 145.632812 16.621094 L 145.632812 15.097656 L 146.667969 15.097656 L 146.667969 14.355469 L 145.632812 14.355469 L 145.632812 12.695312 Z M 148.210938 12.109375 L 148.210938 12.773438 L 151.433594 12.773438 L 151.433594 12.109375 L 148.210938 12.109375 C 148.777344 11.5625 149.324219 10.957031 149.851562 10.3125 C 150.710938 11.40625 151.667969 12.34375 152.722656 13.105469 L 153.152344 12.480469 C 152.136719 11.757812 151.140625 10.800781 150.144531 9.589844 L 149.578125 9.589844 C 148.660156 10.703125 147.625 11.699219 146.472656 12.539062 L 146.921875 13.222656 C 147.351562 12.871094 147.78125 12.5 148.210938 12.109375 Z M 148.992188 19.804688 C 149.539062 19.804688 149.832031 19.511719 149.832031 18.925781 L 149.832031 13.671875 L 147.175781 13.671875 L 147.175781 19.882812 L 147.878906 19.882812 L 147.878906 17.773438 L 149.148438 17.773438 L 149.148438 18.789062 C 149.148438 19.023438 149.011719 19.160156 148.777344 19.160156 L 148.269531 19.140625 L 148.445312 19.804688 Z M 147.878906 17.148438 L 147.878906 16.074219 L 149.148438 16.074219 L 149.148438 17.148438 Z M 147.878906 15.449219 L 147.878906 14.335938 L 149.148438 14.335938 L 149.148438 15.449219 Z M 150.496094 13.984375 L 150.496094 18.027344 L 151.140625 18.027344 L 151.140625 13.984375 Z M 151.726562 19.824219 C 152.273438 19.824219 152.546875 19.492188 152.546875 18.847656 L 152.546875 13.476562 L 151.84375 13.476562 L 151.84375 18.671875 C 151.84375 18.984375 151.726562 19.160156 151.472656 19.160156 C 151.199219 19.160156 150.90625 19.140625 150.613281 19.101562 L 150.769531 19.824219 Z M 151.726562 19.824219 "/>
<path style=" stroke:none;fill-rule:nonzero;fill:rgb(0%,0%,0%);fill-opacity:1;" d="M 158.699219 12.167969 C 157.976562 15.15625 156.414062 17.460938 153.992188 19.023438 L 154.480469 19.726562 C 156.84375 18.183594 158.40625 15.976562 159.148438 13.105469 C 159.207031 13.242188 159.246094 13.398438 159.324219 13.59375 C 160.476562 16.5625 161.960938 18.613281 163.796875 19.707031 L 164.304688 19.0625 C 162.507812 17.949219 161.101562 16.035156 160.046875 13.359375 C 159.363281 11.523438 158.503906 10.253906 157.507812 9.550781 L 156.84375 9.980469 C 157.546875 10.507812 158.171875 11.230469 158.699219 12.167969 Z M 158.699219 12.167969 "/>
<path style=" stroke:none;fill-rule:nonzero;fill:rgb(0%,0%,0%);fill-opacity:1;" d="M 12.847656 150.960938 L 7.535156 150.960938 L 7.535156 150.023438 L 12.847656 150.023438 Z M 12.847656 153.402344 L 7.535156 153.402344 L 7.535156 152.464844 L 12.847656 152.464844 Z M 12.847656 153.402344 "/>
<path style="fill:none;stroke-width:1;stroke-linecap:round;stroke-linejoin:round;stroke:rgb(0%,0%,0%);stroke-opacity:1;stroke-miterlimit:10;" d="M 926 245.8 L 944 245.8 L 944 263.8 L 926 263.8 Z M 926 245.8 " transform="matrix(1.25,0,0,1.25,-1027.5,-145)"/>
<path style="fill:none;stroke-width:1;stroke-linecap:round;stroke-linejoin:round;stroke:rgb(0%,0%,0%);stroke-opacity:1;stroke-miterlimit:10;" d="M 926 209.8 L 944 209.8 L 944 227.8 L 926 227.8 Z M 926 209.8 " transform="matrix(1.25,0,0,1.25,-1027.5,-145)"/>
<path style=" stroke:none;fill-rule:nonzero;fill:rgb(0%,0%,0%);fill-opacity:1;" d="M 138.589844 128.101562 C 138.589844 127.152344 138.6875 126.382812 138.882812 125.796875 C 139.078125 125.210938 139.363281 124.761719 139.742188 124.449219 C 140.132812 124.136719 140.621094 123.980469 141.207031 123.980469 C 141.648438 123.980469 142.03125 124.074219 142.359375 124.253906 C 142.683594 124.425781 142.949219 124.671875 143.160156 124.996094 C 143.367188 125.324219 143.53125 125.71875 143.648438 126.1875 C 143.777344 126.65625 143.84375 127.296875 143.84375 128.101562 C 143.84375 129.039062 143.746094 129.800781 143.550781 130.386719 C 143.355469 130.960938 143.0625 131.410156 142.671875 131.734375 C 142.292969 132.046875 141.804688 132.203125 141.207031 132.203125 C 140.4375 132.203125 139.832031 131.925781 139.390625 131.363281 C 138.855469 130.699219 138.589844 129.613281 138.589844 128.101562 Z M 139.605469 128.101562 C 139.605469 129.417969 139.753906 130.296875 140.054688 130.738281 C 140.367188 131.167969 140.75 131.382812 141.207031 131.382812 C 141.660156 131.382812 142.046875 131.167969 142.359375 130.738281 C 142.671875 130.296875 142.828125 129.417969 142.828125 128.101562 C 142.828125 126.773438 142.671875 125.894531 142.359375 125.464844 C 142.046875 125.023438 141.660156 124.800781 141.207031 124.800781 C 140.75 124.800781 140.386719 124.992188 140.113281 125.367188 C 139.773438 125.863281 139.605469 126.773438 139.605469 128.101562 Z M 139.605469 128.101562 "/>
<path style="fill:none;stroke-width:1;stroke-linecap:round;stroke-linejoin:round;stroke:rgb(0%,0%,0%);stroke-opacity:1;stroke-miterlimit:10;" d="M 926 227.8 L 944 227.8 L 944 245.8 L 926 245.8 Z M 926 227.8 " transform="matrix(1.25,0,0,1.25,-1027.5,-145)"/>
<path style=" stroke:none;fill-rule:nonzero;fill:rgb(0%,0%,0%);fill-opacity:1;" d="M 143.785156 153.609375 L 143.785156 154.566406 L 138.453125 154.566406 C 138.453125 154.332031 138.492188 154.105469 138.570312 153.882812 C 138.710938 153.519531 138.933594 153.160156 139.234375 152.808594 C 139.53125 152.457031 139.960938 152.054688 140.523438 151.597656 C 141.394531 150.871094 141.980469 150.296875 142.28125 149.878906 C 142.59375 149.464844 142.75 149.066406 142.75 148.6875 C 142.75 148.296875 142.605469 147.972656 142.320312 147.710938 C 142.046875 147.4375 141.6875 147.300781 141.246094 147.300781 C 140.761719 147.300781 140.378906 147.445312 140.09375 147.730469 C 139.804688 148.019531 139.664062 148.414062 139.664062 148.921875 L 138.648438 148.804688 C 138.710938 148.050781 138.972656 147.476562 139.429688 147.085938 C 139.882812 146.683594 140.496094 146.480469 141.265625 146.480469 C 142.03125 146.480469 142.636719 146.695312 143.082031 147.125 C 143.535156 147.554688 143.765625 148.082031 143.765625 148.707031 C 143.765625 149.035156 143.699219 149.351562 143.570312 149.664062 C 143.4375 149.976562 143.21875 150.308594 142.90625 150.660156 C 142.605469 151 142.105469 151.46875 141.402344 152.066406 C 140.800781 152.5625 140.417969 152.902344 140.25 153.082031 C 140.078125 153.265625 139.941406 153.441406 139.839844 153.609375 Z M 143.785156 153.609375 "/>
<path style="fill:none;stroke-width:1;stroke-linecap:round;stroke-linejoin:round;stroke:rgb(0%,0%,0%);stroke-opacity:1;stroke-miterlimit:10;" d="M 908 245.8 L 926 245.8 L 926 263.8 L 908 263.8 Z M 908 245.8 " transform="matrix(1.25,0,0,1.25,-1027.5,-145)"/>
<path style="fill:none;stroke-width:1;stroke-linecap:round;stroke-linejoin:round;stroke:rgb(0%,0%,0%);stroke-opacity:1;stroke-miterlimit:10;" d="M 944 227.8 L 962 227.8 L 962 245.8 L 944 245.8 Z M 944 227.8 " transform="matrix(1.25,0,0,1.25,-1027.5,-145)"/>
<path style=" stroke:none;fill-rule:nonzero;fill:rgb(0%,0%,0%);fill-opacity:1;" d="M 161.089844 152.4375 L 162.085938 152.300781 C 162.203125 152.863281 162.390625 153.265625 162.652344 153.511719 C 162.925781 153.761719 163.261719 153.882812 163.667969 153.882812 C 164.121094 153.882812 164.507812 153.726562 164.820312 153.414062 C 165.144531 153.089844 165.308594 152.6875 165.308594 152.203125 C 165.308594 151.75 165.15625 151.378906 164.859375 151.089844 C 164.570312 150.792969 164.199219 150.640625 163.746094 150.640625 C 163.550781 150.640625 163.316406 150.679688 163.042969 150.757812 L 163.160156 149.878906 C 163.222656 149.894531 163.277344 149.898438 163.316406 149.898438 C 163.730469 149.898438 164.109375 149.789062 164.449219 149.566406 C 164.785156 149.347656 164.957031 149.007812 164.957031 148.550781 C 164.957031 148.1875 164.832031 147.886719 164.585938 147.652344 C 164.335938 147.417969 164.019531 147.300781 163.628906 147.300781 C 163.25 147.300781 162.929688 147.425781 162.671875 147.671875 C 162.421875 147.90625 162.261719 148.265625 162.183594 148.746094 L 161.1875 148.570312 C 161.316406 147.90625 161.589844 147.394531 162.007812 147.027344 C 162.4375 146.664062 162.96875 146.480469 163.609375 146.480469 C 164.050781 146.480469 164.453125 146.578125 164.820312 146.773438 C 165.195312 146.957031 165.484375 147.210938 165.679688 147.535156 C 165.875 147.863281 165.972656 148.207031 165.972656 148.570312 C 165.972656 148.921875 165.875 149.242188 165.679688 149.527344 C 165.496094 149.816406 165.222656 150.042969 164.859375 150.210938 C 165.339844 150.316406 165.710938 150.542969 165.972656 150.894531 C 166.230469 151.234375 166.363281 151.664062 166.363281 152.183594 C 166.363281 152.886719 166.101562 153.488281 165.582031 153.980469 C 165.074219 154.464844 164.429688 154.703125 163.648438 154.703125 C 162.945312 154.703125 162.359375 154.496094 161.890625 154.078125 C 161.421875 153.664062 161.152344 153.117188 161.089844 152.4375 Z M 161.089844 152.4375 "/>
<path style="fill:none;stroke-width:1;stroke-linecap:round;stroke-linejoin:round;stroke:rgb(0%,0%,0%);stroke-opacity:1;stroke-miterlimit:10;" d="M 908 227.8 L 926 227.8 L 926 245.8 L 908 245.8 Z M 908 227.8 " transform="matrix(1.25,0,0,1.25,-1027.5,-145)"/>
<path style="fill:none;stroke-width:1;stroke-linecap:round;stroke-linejoin:round;stroke:rgb(0%,0%,0%);stroke-opacity:1;stroke-miterlimit:10;" d="M 944 245.8 L 962 245.8 L 962 263.8 L 944 263.8 Z M 944 245.8 " transform="matrix(1.25,0,0,1.25,-1027.5,-145)"/>
<path style="fill:none;stroke-width:1;stroke-linecap:round;stroke-linejoin:round;stroke:rgb(0%,0%,0%);stroke-opacity:1;stroke-miterlimit:10;" d="M 944 209.8 L 962 209.8 L 962 227.8 L 944 227.8 Z M 944 209.8 " transform="matrix(1.25,0,0,1.25,-1027.5,-145)"/>
<path style=" stroke:none;fill-rule:nonzero;fill:rgb(0%,0%,0%);fill-opacity:1;" d="M 164.820312 132.066406 L 163.824219 132.066406 L 163.824219 125.757812 C 163.589844 125.992188 163.277344 126.226562 162.886719 126.460938 C 162.496094 126.683594 162.148438 126.847656 161.851562 126.949219 L 161.851562 125.992188 C 162.398438 125.746094 162.878906 125.441406 163.296875 125.074219 C 163.710938 124.699219 164.003906 124.332031 164.175781 123.980469 L 164.820312 123.980469 Z M 164.820312 132.066406 "/>
<path style="fill:none;stroke-width:1;stroke-linecap:round;stroke-linejoin:round;stroke:rgb(0%,0%,0%);stroke-opacity:1;stroke-miterlimit:10;" d="M 908 209.8 L 926 209.8 L 926 227.8 L 908 227.8 Z M 908 209.8 " transform="matrix(1.25,0,0,1.25,-1027.5,-145)"/>
<path style="fill:none;stroke-width:1;stroke-linecap:round;stroke-linejoin:round;stroke:rgb(0%,0%,0%);stroke-opacity:1;stroke-miterlimit:10;" d="M 994.6 245.8 L 1012.6 245.8 L 1012.6 263.8 L 994.6 263.8 Z M 994.6 245.8 " transform="matrix(1.25,0,0,1.25,-1027.5,-145)"/>
<path style=" stroke:none;fill-rule:nonzero;fill:rgb(0%,0%,0%);fill-opacity:1;" d="M 229.476562 170.992188 L 228.480469 171.070312 C 228.402344 170.679688 228.277344 170.394531 228.109375 170.210938 C 227.847656 169.9375 227.523438 169.800781 227.132812 169.800781 C 226.804688 169.800781 226.527344 169.886719 226.292969 170.054688 C 225.980469 170.289062 225.730469 170.621094 225.550781 171.050781 C 225.378906 171.480469 225.289062 172.101562 225.277344 172.90625 C 225.511719 172.554688 225.796875 172.296875 226.136719 172.125 C 226.488281 171.945312 226.851562 171.851562 227.230469 171.851562 C 227.894531 171.851562 228.453125 172.09375 228.910156 172.574219 C 229.378906 173.058594 229.613281 173.683594 229.613281 174.449219 C 229.613281 174.957031 229.5 175.433594 229.28125 175.875 C 229.058594 176.304688 228.757812 176.636719 228.382812 176.871094 C 228.003906 177.089844 227.574219 177.203125 227.09375 177.203125 C 226.273438 177.203125 225.601562 176.90625 225.082031 176.304688 C 224.558594 175.695312 224.300781 174.691406 224.300781 173.296875 C 224.300781 171.75 224.585938 170.617188 225.160156 169.898438 C 225.652344 169.289062 226.332031 168.980469 227.191406 168.980469 C 227.816406 168.980469 228.328125 169.164062 228.734375 169.527344 C 229.136719 169.878906 229.382812 170.367188 229.476562 170.992188 Z M 225.433594 174.449219 C 225.433594 174.800781 225.503906 175.132812 225.648438 175.445312 C 225.789062 175.746094 225.992188 175.980469 226.253906 176.148438 C 226.511719 176.304688 226.785156 176.382812 227.074219 176.382812 C 227.488281 176.382812 227.847656 176.222656 228.148438 175.894531 C 228.445312 175.558594 228.597656 175.09375 228.597656 174.507812 C 228.597656 173.949219 228.445312 173.511719 228.148438 173.199219 C 227.859375 172.875 227.488281 172.710938 227.035156 172.710938 C 226.589844 172.710938 226.214844 172.875 225.902344 173.199219 C 225.589844 173.511719 225.433594 173.929688 225.433594 174.449219 Z M 225.433594 174.449219 "/>
<path style="fill:none;stroke-width:1;stroke-linecap:round;stroke-linejoin:round;stroke:rgb(0%,0%,0%);stroke-opacity:1;stroke-miterlimit:10;" d="M 994.6 209.8 L 1012.6 209.8 L 1012.6 227.8 L 994.6 227.8 Z M 994.6 209.8 " transform="matrix(1.25,0,0,1.25,-1027.5,-145)"/>
<path style="fill:none;stroke-width:1;stroke-linecap:round;stroke-linejoin:round;stroke:rgb(0%,0%,0%);stroke-opacity:1;stroke-miterlimit:10;" d="M 994.6 227.8 L 1012.6 227.8 L 1012.6 245.8 L 994.6 245.8 Z M 994.6 227.8 " transform="matrix(1.25,0,0,1.25,-1027.5,-145)"/>
<path style=" stroke:none;fill-rule:nonzero;fill:rgb(0%,0%,0%);fill-opacity:1;" d="M 229.535156 153.609375 L 229.535156 154.566406 L 224.203125 154.566406 C 224.203125 154.332031 224.242188 154.105469 224.320312 153.882812 C 224.460938 153.519531 224.683594 153.160156 224.984375 152.808594 C 225.28125 152.457031 225.710938 152.054688 226.273438 151.597656 C 227.144531 150.871094 227.730469 150.296875 228.03125 149.878906 C 228.34375 149.464844 228.5 149.066406 228.5 148.6875 C 228.5 148.296875 228.355469 147.972656 228.070312 147.710938 C 227.796875 147.4375 227.4375 147.300781 226.996094 147.300781 C 226.511719 147.300781 226.128906 147.445312 225.84375 147.730469 C 225.554688 148.019531 225.414062 148.414062 225.414062 148.921875 L 224.398438 148.804688 C 224.460938 148.050781 224.722656 147.476562 225.179688 147.085938 C 225.632812 146.683594 226.246094 146.480469 227.015625 146.480469 C 227.78125 146.480469 228.386719 146.695312 228.832031 147.125 C 229.285156 147.554688 229.515625 148.082031 229.515625 148.707031 C 229.515625 149.035156 229.449219 149.351562 229.320312 149.664062 C 229.1875 149.976562 228.96875 150.308594 228.65625 150.660156 C 228.355469 151 227.855469 151.46875 227.152344 152.066406 C 226.550781 152.5625 226.167969 152.902344 226 153.082031 C 225.828125 153.265625 225.691406 153.441406 225.589844 153.609375 Z M 229.535156 153.609375 "/>
<path style="fill:none;stroke-width:1;stroke-linecap:round;stroke-linejoin:round;stroke:rgb(0%,0%,0%);stroke-opacity:1;stroke-miterlimit:10;" d="M 976.6 245.8 L 994.6 245.8 L 994.6 263.8 L 976.6 263.8 Z M 976.6 245.8 " transform="matrix(1.25,0,0,1.25,-1027.5,-145)"/>
<path style=" stroke:none;fill-rule:nonzero;fill:rgb(0%,0%,0%);fill-opacity:1;" d="M 205.003906 177.066406 L 205.003906 175.132812 L 201.507812 175.132812 L 201.507812 174.234375 L 205.179688 169.019531 L 206 169.019531 L 206 174.234375 L 207.09375 174.234375 L 207.09375 175.132812 L 206 175.132812 L 206 177.066406 Z M 205.003906 174.234375 L 205.003906 170.601562 L 202.484375 174.234375 Z M 205.003906 174.234375 "/>
<path style="fill:none;stroke-width:1;stroke-linecap:round;stroke-linejoin:round;stroke:rgb(0%,0%,0%);stroke-opacity:1;stroke-miterlimit:10;" d="M 1012.6 227.8 L 1030.6 227.8 L 1030.6 245.8 L 1012.6 245.8 Z M 1012.6 227.8 " transform="matrix(1.25,0,0,1.25,-1027.5,-145)"/>
<path style="fill:none;stroke-width:1;stroke-linecap:round;stroke-linejoin:round;stroke:rgb(0%,0%,0%);stroke-opacity:1;stroke-miterlimit:10;" d="M 976.6 227.8 L 994.6 227.8 L 994.6 245.8 L 976.6 245.8 Z M 976.6 227.8 " transform="matrix(1.25,0,0,1.25,-1027.5,-145)"/>
<path style=" stroke:none;fill-rule:nonzero;fill:rgb(0%,0%,0%);fill-opacity:1;" d="M 201.839844 150.601562 C 201.839844 149.652344 201.9375 148.882812 202.132812 148.296875 C 202.328125 147.710938 202.613281 147.261719 202.992188 146.949219 C 203.382812 146.636719 203.871094 146.480469 204.457031 146.480469 C 204.898438 146.480469 205.28125 146.574219 205.609375 146.753906 C 205.933594 146.925781 206.199219 147.171875 206.410156 147.496094 C 206.617188 147.824219 206.78125 148.21875 206.898438 148.6875 C 207.027344 149.15625 207.09375 149.796875 207.09375 150.601562 C 207.09375 151.539062 206.996094 152.300781 206.800781 152.886719 C 206.605469 153.460938 206.3125 153.910156 205.921875 154.234375 C 205.542969 154.546875 205.054688 154.703125 204.457031 154.703125 C 203.6875 154.703125 203.082031 154.425781 202.640625 153.863281 C 202.105469 153.199219 201.839844 152.113281 201.839844 150.601562 Z M 202.855469 150.601562 C 202.855469 151.917969 203.003906 152.796875 203.304688 153.238281 C 203.617188 153.667969 204 153.882812 204.457031 153.882812 C 204.910156 153.882812 205.296875 153.667969 205.609375 153.238281 C 205.921875 152.796875 206.078125 151.917969 206.078125 150.601562 C 206.078125 149.273438 205.921875 148.394531 205.609375 147.964844 C 205.296875 147.523438 204.910156 147.300781 204.457031 147.300781 C 204 147.300781 203.636719 147.492188 203.363281 147.867188 C 203.023438 148.363281 202.855469 149.273438 202.855469 150.601562 Z M 202.855469 150.601562 "/>
<path style="fill:none;stroke-width:1;stroke-linecap:round;stroke-linejoin:round;stroke:rgb(0%,0%,0%);stroke-opacity:1;stroke-miterlimit:10;" d="M 1012.6 245.8 L 1030.6 245.8 L 1030.6 263.8 L 1012.6 263.8 Z M 1012.6 245.8 " transform="matrix(1.25,0,0,1.25,-1027.5,-145)"/>
<path style="fill:none;stroke-width:1;stroke-linecap:round;stroke-linejoin:round;stroke:rgb(0%,0%,0%);stroke-opacity:1;stroke-miterlimit:10;" d="M 1012.6 209.8 L 1030.6 209.8 L 1030.6 227.8 L 1012.6 227.8 Z M 1012.6 209.8 " transform="matrix(1.25,0,0,1.25,-1027.5,-145)"/>
<path style="fill:none;stroke-width:1;stroke-linecap:round;stroke-linejoin:round;stroke:rgb(0%,0%,0%);stroke-opacity:1;stroke-miterlimit:10;" d="M 976.6 209.8 L 994.6 209.8 L 994.6 227.8 L 976.6 227.8 Z M 976.6 209.8 " transform="matrix(1.25,0,0,1.25,-1027.5,-145)"/>
<path style="fill:none;stroke-width:1;stroke-linecap:round;stroke-linejoin:round;stroke:rgb(0%,0%,0%);stroke-opacity:1;stroke-miterlimit:10;" d="M 1063.35625 246.465625 L 1081.35625 246.465625 L 1081.35625 264.465625 L 1063.35625 264.465625 Z M 1063.35625 246.465625 " transform="matrix(1.25,0,0,1.25,-1027.5,-145)"/>
<path style=" stroke:none;fill-rule:nonzero;fill:rgb(0%,0%,0%);fill-opacity:1;" d="M 315.421875 171.824219 L 314.425781 171.902344 C 314.347656 171.511719 314.21875 171.230469 314.054688 171.042969 C 313.789062 170.769531 313.46875 170.632812 313.078125 170.632812 C 312.75 170.632812 312.472656 170.722656 312.238281 170.886719 C 311.925781 171.121094 311.675781 171.453125 311.496094 171.882812 C 311.324219 172.3125 311.230469 172.933594 311.222656 173.738281 C 311.457031 173.386719 311.738281 173.128906 312.082031 172.957031 C 312.433594 172.777344 312.792969 172.683594 313.175781 172.683594 C 313.839844 172.683594 314.394531 172.929688 314.855469 173.40625 C 315.324219 173.890625 315.558594 174.515625 315.558594 175.28125 C 315.558594 175.789062 315.445312 176.269531 315.226562 176.707031 C 315 177.136719 314.703125 177.46875 314.328125 177.703125 C 313.945312 177.921875 313.515625 178.035156 313.039062 178.035156 C 312.21875 178.035156 311.542969 177.738281 311.027344 177.136719 C 310.503906 176.527344 310.246094 175.527344 310.246094 174.128906 C 310.246094 172.582031 310.527344 171.449219 311.105469 170.730469 C 311.597656 170.121094 312.277344 169.8125 313.136719 169.8125 C 313.761719 169.8125 314.273438 170 314.679688 170.359375 C 315.078125 170.710938 315.328125 171.199219 315.421875 171.824219 Z M 311.378906 175.28125 C 311.378906 175.632812 311.445312 175.964844 311.59375 176.277344 C 311.734375 176.582031 311.933594 176.816406 312.199219 176.980469 C 312.457031 177.136719 312.730469 177.214844 313.019531 177.214844 C 313.433594 177.214844 313.789062 177.054688 314.09375 176.726562 C 314.390625 176.390625 314.542969 175.925781 314.542969 175.339844 C 314.542969 174.785156 314.390625 174.34375 314.09375 174.03125 C 313.804688 173.710938 313.433594 173.542969 312.980469 173.542969 C 312.535156 173.542969 312.160156 173.710938 311.847656 174.03125 C 311.535156 174.34375 311.378906 174.765625 311.378906 175.28125 Z M 311.378906 175.28125 "/>
<path style="fill:none;stroke-width:1;stroke-linecap:round;stroke-linejoin:round;stroke:rgb(0%,0%,0%);stroke-opacity:1;stroke-miterlimit:10;" d="M 1063.35625 210.465625 L 1081.35625 210.465625 L 1081.35625 228.465625 L 1063.35625 228.465625 Z M 1063.35625 210.465625 " transform="matrix(1.25,0,0,1.25,-1027.5,-145)"/>
<path style="fill:none;stroke-width:1;stroke-linecap:round;stroke-linejoin:round;stroke:rgb(0%,0%,0%);stroke-opacity:1;stroke-miterlimit:10;" d="M 1063.35625 228.465625 L 1081.35625 228.465625 L 1081.35625 246.465625 L 1063.35625 246.465625 Z M 1063.35625 228.465625 " transform="matrix(1.25,0,0,1.25,-1027.5,-145)"/>
<path style=" stroke:none;fill-rule:nonzero;fill:rgb(0%,0%,0%);fill-opacity:1;" d="M 310.285156 151.433594 C 310.285156 150.488281 310.382812 149.714844 310.578125 149.128906 C 310.773438 148.542969 311.054688 148.09375 311.4375 147.78125 C 311.828125 147.46875 312.316406 147.3125 312.902344 147.3125 C 313.339844 147.3125 313.726562 147.40625 314.054688 147.585938 C 314.375 147.757812 314.644531 148.007812 314.855469 148.328125 C 315.058594 148.65625 315.226562 149.050781 315.34375 149.519531 C 315.46875 149.988281 315.539062 150.628906 315.539062 151.433594 C 315.539062 152.371094 315.441406 153.132812 315.246094 153.71875 C 315.050781 154.296875 314.757812 154.746094 314.367188 155.066406 C 313.984375 155.378906 313.496094 155.535156 312.902344 155.535156 C 312.128906 155.535156 311.523438 155.257812 311.085938 154.695312 C 310.546875 154.03125 310.285156 152.949219 310.285156 151.433594 Z M 311.300781 151.433594 C 311.300781 152.753906 311.445312 153.632812 311.75 154.070312 C 312.0625 154.5 312.441406 154.714844 312.902344 154.714844 C 313.355469 154.714844 313.742188 154.5 314.054688 154.070312 C 314.367188 153.632812 314.523438 152.753906 314.523438 151.433594 C 314.523438 150.105469 314.367188 149.226562 314.054688 148.796875 C 313.742188 148.359375 313.355469 148.132812 312.902344 148.132812 C 312.441406 148.132812 312.082031 148.324219 311.808594 148.699219 C 311.464844 149.199219 311.300781 150.105469 311.300781 151.433594 Z M 311.300781 151.433594 "/>
<path style="fill:none;stroke-width:1;stroke-linecap:round;stroke-linejoin:round;stroke:rgb(0%,0%,0%);stroke-opacity:1;stroke-miterlimit:10;" d="M 1045.35625 246.465625 L 1063.35625 246.465625 L 1063.35625 264.465625 L 1045.35625 264.465625 Z M 1045.35625 246.465625 " transform="matrix(1.25,0,0,1.25,-1027.5,-145)"/>
<path style="fill:none;stroke-width:1;stroke-linecap:round;stroke-linejoin:round;stroke:rgb(0%,0%,0%);stroke-opacity:1;stroke-miterlimit:10;" d="M 1081.35625 228.465625 L 1099.35625 228.465625 L 1099.35625 246.465625 L 1081.35625 246.465625 Z M 1081.35625 228.465625 " transform="matrix(1.25,0,0,1.25,-1027.5,-145)"/>
<path style=" stroke:none;fill-rule:nonzero;fill:rgb(0%,0%,0%);fill-opacity:1;" d="M 332.785156 153.269531 L 333.78125 153.132812 C 333.898438 153.695312 334.082031 154.101562 334.347656 154.34375 C 334.621094 154.59375 334.957031 154.714844 335.363281 154.714844 C 335.816406 154.714844 336.203125 154.558594 336.515625 154.246094 C 336.835938 153.925781 337.003906 153.519531 337.003906 153.035156 C 337.003906 152.582031 336.851562 152.210938 336.554688 151.921875 C 336.265625 151.625 335.894531 151.472656 335.441406 151.472656 C 335.246094 151.472656 335.011719 151.511719 334.738281 151.589844 L 334.855469 150.710938 C 334.917969 150.726562 334.972656 150.730469 335.011719 150.730469 C 335.425781 150.730469 335.800781 150.625 336.144531 150.398438 C 336.480469 150.179688 336.652344 149.84375 336.652344 149.382812 C 336.652344 149.023438 336.523438 148.71875 336.28125 148.484375 C 336.03125 148.25 335.714844 148.132812 335.324219 148.132812 C 334.941406 148.132812 334.625 148.261719 334.367188 148.503906 C 334.117188 148.738281 333.957031 149.101562 333.878906 149.578125 L 332.882812 149.402344 C 333.007812 148.738281 333.28125 148.226562 333.703125 147.859375 C 334.132812 147.5 334.664062 147.3125 335.304688 147.3125 C 335.742188 147.3125 336.148438 147.410156 336.515625 147.605469 C 336.890625 147.792969 337.179688 148.046875 337.375 148.367188 C 337.570312 148.695312 337.667969 149.042969 337.667969 149.402344 C 337.667969 149.753906 337.570312 150.078125 337.375 150.359375 C 337.1875 150.648438 336.914062 150.878906 336.554688 151.042969 C 337.03125 151.152344 337.402344 151.375 337.667969 151.726562 C 337.925781 152.070312 338.058594 152.5 338.058594 153.015625 C 338.058594 153.71875 337.792969 154.320312 337.277344 154.8125 C 336.769531 155.296875 336.125 155.535156 335.34375 155.535156 C 334.640625 155.535156 334.054688 155.332031 333.585938 154.910156 C 333.117188 154.496094 332.847656 153.949219 332.785156 153.269531 Z M 332.785156 153.269531 "/>
<path style="fill:none;stroke-width:1;stroke-linecap:round;stroke-linejoin:round;stroke:rgb(0%,0%,0%);stroke-opacity:1;stroke-miterlimit:10;" d="M 1045.35625 228.465625 L 1063.35625 228.465625 L 1063.35625 246.465625 L 1045.35625 246.465625 Z M 1045.35625 228.465625 " transform="matrix(1.25,0,0,1.25,-1027.5,-145)"/>
<path style="fill:none;stroke-width:1;stroke-linecap:round;stroke-linejoin:round;stroke:rgb(0%,0%,0%);stroke-opacity:1;stroke-miterlimit:10;" d="M 1081.35625 246.465625 L 1099.35625 246.465625 L 1099.35625 264.465625 L 1081.35625 264.465625 Z M 1081.35625 246.465625 " transform="matrix(1.25,0,0,1.25,-1027.5,-145)"/>
<path style=" stroke:none;fill-rule:nonzero;fill:rgb(0%,0%,0%);fill-opacity:1;" d="M 332.941406 176.042969 L 333.878906 175.945312 C 333.957031 176.390625 334.101562 176.71875 334.328125 176.921875 C 334.5625 177.117188 334.859375 177.214844 335.226562 177.214844 C 335.523438 177.214844 335.78125 177.152344 336.007812 177.019531 C 336.242188 176.878906 336.425781 176.6875 336.574219 176.453125 C 336.730469 176.21875 336.851562 175.90625 336.945312 175.515625 C 337.046875 175.125 337.101562 174.726562 337.101562 174.304688 C 337.101562 174.265625 337.089844 174.203125 337.082031 174.109375 C 336.886719 174.421875 336.617188 174.675781 336.28125 174.871094 C 335.9375 175.066406 335.566406 175.164062 335.167969 175.164062 C 334.503906 175.164062 333.9375 174.925781 333.46875 174.441406 C 333.007812 173.964844 332.785156 173.324219 332.785156 172.527344 C 332.785156 171.707031 333.023438 171.054688 333.507812 170.554688 C 333.984375 170.0625 334.589844 169.8125 335.324219 169.8125 C 335.839844 169.8125 336.320312 169.960938 336.75 170.242188 C 337.179688 170.515625 337.5 170.917969 337.726562 171.433594 C 337.960938 171.957031 338.078125 172.714844 338.078125 173.699219 C 338.078125 174.730469 337.964844 175.550781 337.746094 176.160156 C 337.519531 176.777344 337.1875 177.246094 336.75 177.566406 C 336.304688 177.878906 335.78125 178.035156 335.1875 178.035156 C 334.5625 178.035156 334.042969 177.859375 333.644531 177.507812 C 333.253906 177.15625 333.019531 176.667969 332.941406 176.042969 Z M 336.984375 172.488281 C 336.984375 171.917969 336.828125 171.46875 336.515625 171.140625 C 336.210938 170.804688 335.855469 170.632812 335.441406 170.632812 C 334.996094 170.632812 334.609375 170.820312 334.289062 171.179688 C 333.960938 171.53125 333.800781 171.996094 333.800781 172.566406 C 333.800781 173.074219 333.945312 173.496094 334.25 173.816406 C 334.5625 174.128906 334.941406 174.285156 335.402344 174.285156 C 335.871094 174.285156 336.246094 174.128906 336.535156 173.816406 C 336.832031 173.496094 336.984375 173.050781 336.984375 172.488281 Z M 336.984375 172.488281 "/>
<path style="fill:none;stroke-width:1;stroke-linecap:round;stroke-linejoin:round;stroke:rgb(0%,0%,0%);stroke-opacity:1;stroke-miterlimit:10;" d="M 1081.35625 210.465625 L 1099.35625 210.465625 L 1099.35625 228.465625 L 1081.35625 228.465625 Z M 1081.35625 210.465625 " transform="matrix(1.25,0,0,1.25,-1027.5,-145)"/>
<path style="fill:none;stroke-width:1;stroke-linecap:round;stroke-linejoin:round;stroke:rgb(0%,0%,0%);stroke-opacity:1;stroke-miterlimit:10;" d="M 1045.35625 210.465625 L 1063.35625 210.465625 L 1063.35625 228.465625 L 1045.35625 228.465625 Z M 1045.35625 210.465625 " transform="matrix(1.25,0,0,1.25,-1027.5,-145)"/>
<path style="fill:none;stroke-width:1;stroke-linecap:round;stroke-linejoin:round;stroke:rgb(0%,0%,0%);stroke-opacity:1;stroke-miterlimit:10;" d="M 1131.8 245.8 L 1149.8 245.8 L 1149.8 263.8 L 1131.8 263.8 Z M 1131.8 245.8 " transform="matrix(1.25,0,0,1.25,-1027.5,-145)"/>
<path style=" stroke:none;fill-rule:nonzero;fill:rgb(0%,0%,0%);fill-opacity:1;" d="M 396.441406 177.066406 L 395.445312 177.066406 L 395.445312 170.757812 C 395.210938 170.992188 394.898438 171.226562 394.507812 171.460938 C 394.117188 171.683594 393.773438 171.847656 393.472656 171.949219 L 393.472656 170.992188 C 394.019531 170.746094 394.5 170.441406 394.917969 170.074219 C 395.335938 169.699219 395.628906 169.332031 395.796875 168.980469 L 396.441406 168.980469 Z M 396.441406 177.066406 "/>
<path style=" stroke:none;fill-rule:nonzero;fill:rgb(0%,0%,0%);fill-opacity:1;" d="M 404.164062 176.109375 L 404.164062 177.066406 L 398.832031 177.066406 C 398.832031 176.832031 398.871094 176.605469 398.949219 176.382812 C 399.09375 176.019531 399.3125 175.660156 399.613281 175.308594 C 399.914062 174.957031 400.34375 174.554688 400.902344 174.097656 C 401.773438 173.371094 402.359375 172.796875 402.660156 172.378906 C 402.972656 171.964844 403.128906 171.566406 403.128906 171.1875 C 403.128906 170.796875 402.984375 170.472656 402.699219 170.210938 C 402.425781 169.9375 402.066406 169.800781 401.625 169.800781 C 401.144531 169.800781 400.757812 169.945312 400.472656 170.230469 C 400.1875 170.519531 400.042969 170.914062 400.042969 171.421875 L 399.027344 171.304688 C 399.09375 170.550781 399.351562 169.976562 399.808594 169.585938 C 400.265625 169.183594 400.875 168.980469 401.644531 168.980469 C 402.414062 168.980469 403.019531 169.195312 403.460938 169.625 C 403.917969 170.054688 404.144531 170.582031 404.144531 171.207031 C 404.144531 171.535156 404.078125 171.851562 403.949219 172.164062 C 403.820312 172.476562 403.597656 172.808594 403.285156 173.160156 C 402.984375 173.5 402.484375 173.96875 401.78125 174.566406 C 401.183594 175.0625 400.796875 175.402344 400.628906 175.582031 C 400.460938 175.765625 400.324219 175.941406 400.21875 176.109375 Z M 404.164062 176.109375 "/>
<path style="fill:none;stroke-width:1;stroke-linecap:round;stroke-linejoin:round;stroke:rgb(0%,0%,0%);stroke-opacity:1;stroke-miterlimit:10;" d="M 1131.8 209.8 L 1149.8 209.8 L 1149.8 227.8 L 1131.8 227.8 Z M 1131.8 209.8 " transform="matrix(1.25,0,0,1.25,-1027.5,-145)"/>
<path style=" stroke:none;fill-rule:nonzero;fill:rgb(0%,0%,0%);fill-opacity:1;" d="M 395.839844 128.101562 C 395.839844 127.152344 395.9375 126.382812 396.132812 125.796875 C 396.328125 125.210938 396.613281 124.761719 396.992188 124.449219 C 397.382812 124.136719 397.871094 123.980469 398.457031 123.980469 C 398.898438 123.980469 399.28125 124.074219 399.609375 124.253906 C 399.933594 124.425781 400.199219 124.671875 400.410156 124.996094 C 400.617188 125.324219 400.78125 125.71875 400.898438 126.1875 C 401.027344 126.65625 401.09375 127.296875 401.09375 128.101562 C 401.09375 129.039062 400.996094 129.800781 400.800781 130.386719 C 400.605469 130.960938 400.3125 131.410156 399.921875 131.734375 C 399.542969 132.046875 399.054688 132.203125 398.457031 132.203125 C 397.6875 132.203125 397.082031 131.925781 396.640625 131.363281 C 396.105469 130.699219 395.839844 129.613281 395.839844 128.101562 Z M 396.855469 128.101562 C 396.855469 129.417969 397.003906 130.296875 397.304688 130.738281 C 397.617188 131.167969 398 131.382812 398.457031 131.382812 C 398.910156 131.382812 399.296875 131.167969 399.609375 130.738281 C 399.921875 130.296875 400.078125 129.417969 400.078125 128.101562 C 400.078125 126.773438 399.921875 125.894531 399.609375 125.464844 C 399.296875 125.023438 398.910156 124.800781 398.457031 124.800781 C 398 124.800781 397.636719 124.992188 397.363281 125.367188 C 397.023438 125.863281 396.855469 126.773438 396.855469 128.101562 Z M 396.855469 128.101562 "/>
<path style="fill:none;stroke-width:1;stroke-linecap:round;stroke-linejoin:round;stroke:rgb(0%,0%,0%);stroke-opacity:1;stroke-miterlimit:10;" d="M 1131.8 227.8 L 1149.8 227.8 L 1149.8 245.8 L 1131.8 245.8 Z M 1131.8 227.8 " transform="matrix(1.25,0,0,1.25,-1027.5,-145)"/>
<path style=" stroke:none;fill-rule:nonzero;fill:rgb(0%,0%,0%);fill-opacity:1;" d="M 399.003906 154.566406 L 399.003906 152.632812 L 395.507812 152.632812 L 395.507812 151.734375 L 399.179688 146.519531 L 400 146.519531 L 400 151.734375 L 401.09375 151.734375 L 401.09375 152.632812 L 400 152.632812 L 400 154.566406 Z M 399.003906 151.734375 L 399.003906 148.101562 L 396.484375 151.734375 Z M 399.003906 151.734375 "/>
<path style="fill:none;stroke-width:1;stroke-linecap:round;stroke-linejoin:round;stroke:rgb(0%,0%,0%);stroke-opacity:1;stroke-miterlimit:10;" d="M 1113.8 245.8 L 1131.8 245.8 L 1131.8 263.8 L 1113.8 263.8 Z M 1113.8 245.8 " transform="matrix(1.25,0,0,1.25,-1027.5,-145)"/>
<path style=" stroke:none;fill-rule:nonzero;fill:rgb(0%,0%,0%);fill-opacity:1;" d="M 376.503906 177.066406 L 376.503906 175.132812 L 373.007812 175.132812 L 373.007812 174.234375 L 376.679688 169.019531 L 377.5 169.019531 L 377.5 174.234375 L 378.59375 174.234375 L 378.59375 175.132812 L 377.5 175.132812 L 377.5 177.066406 Z M 376.503906 174.234375 L 376.503906 170.601562 L 373.984375 174.234375 Z M 376.503906 174.234375 "/>
<path style="fill:none;stroke-width:1;stroke-linecap:round;stroke-linejoin:round;stroke:rgb(0%,0%,0%);stroke-opacity:1;stroke-miterlimit:10;" d="M 1149.8 227.8 L 1167.8 227.8 L 1167.8 245.8 L 1149.8 245.8 Z M 1149.8 227.8 " transform="matrix(1.25,0,0,1.25,-1027.5,-145)"/>
<path style=" stroke:none;fill-rule:nonzero;fill:rgb(0%,0%,0%);fill-opacity:1;" d="M 423.476562 148.492188 L 422.480469 148.570312 C 422.402344 148.179688 422.277344 147.894531 422.109375 147.710938 C 421.847656 147.4375 421.523438 147.300781 421.132812 147.300781 C 420.804688 147.300781 420.527344 147.386719 420.292969 147.554688 C 419.980469 147.789062 419.730469 148.121094 419.550781 148.550781 C 419.378906 148.980469 419.289062 149.601562 419.277344 150.40625 C 419.511719 150.054688 419.796875 149.796875 420.136719 149.625 C 420.488281 149.445312 420.851562 149.351562 421.230469 149.351562 C 421.894531 149.351562 422.453125 149.59375 422.910156 150.074219 C 423.378906 150.558594 423.613281 151.183594 423.613281 151.949219 C 423.613281 152.457031 423.5 152.933594 423.28125 153.375 C 423.058594 153.804688 422.757812 154.136719 422.382812 154.371094 C 422.003906 154.589844 421.574219 154.703125 421.09375 154.703125 C 420.273438 154.703125 419.601562 154.40625 419.082031 153.804688 C 418.558594 153.195312 418.300781 152.191406 418.300781 150.796875 C 418.300781 149.25 418.585938 148.117188 419.160156 147.398438 C 419.652344 146.789062 420.332031 146.480469 421.191406 146.480469 C 421.816406 146.480469 422.328125 146.664062 422.734375 147.027344 C 423.136719 147.378906 423.382812 147.867188 423.476562 148.492188 Z M 419.433594 151.949219 C 419.433594 152.300781 419.503906 152.632812 419.648438 152.945312 C 419.789062 153.246094 419.992188 153.480469 420.253906 153.648438 C 420.511719 153.804688 420.785156 153.882812 421.074219 153.882812 C 421.488281 153.882812 421.847656 153.722656 422.148438 153.394531 C 422.445312 153.058594 422.597656 152.59375 422.597656 152.007812 C 422.597656 151.449219 422.445312 151.011719 422.148438 150.699219 C 421.859375 150.375 421.488281 150.210938 421.035156 150.210938 C 420.589844 150.210938 420.214844 150.375 419.902344 150.699219 C 419.589844 151.011719 419.433594 151.429688 419.433594 151.949219 Z M 419.433594 151.949219 "/>
<path style="fill:none;stroke-width:1;stroke-linecap:round;stroke-linejoin:round;stroke:rgb(0%,0%,0%);stroke-opacity:1;stroke-miterlimit:10;" d="M 1113.8 227.8 L 1131.8 227.8 L 1131.8 245.8 L 1113.8 245.8 Z M 1113.8 227.8 " transform="matrix(1.25,0,0,1.25,-1027.5,-145)"/>
<path style=" stroke:none;fill-rule:nonzero;fill:rgb(0%,0%,0%);fill-opacity:1;" d="M 373.339844 150.601562 C 373.339844 149.652344 373.4375 148.882812 373.632812 148.296875 C 373.828125 147.710938 374.113281 147.261719 374.492188 146.949219 C 374.882812 146.636719 375.371094 146.480469 375.957031 146.480469 C 376.398438 146.480469 376.78125 146.574219 377.109375 146.753906 C 377.433594 146.925781 377.699219 147.171875 377.910156 147.496094 C 378.117188 147.824219 378.28125 148.21875 378.398438 148.6875 C 378.527344 149.15625 378.59375 149.796875 378.59375 150.601562 C 378.59375 151.539062 378.496094 152.300781 378.300781 152.886719 C 378.105469 153.460938 377.8125 153.910156 377.421875 154.234375 C 377.042969 154.546875 376.554688 154.703125 375.957031 154.703125 C 375.1875 154.703125 374.582031 154.425781 374.140625 153.863281 C 373.605469 153.199219 373.339844 152.113281 373.339844 150.601562 Z M 374.355469 150.601562 C 374.355469 151.917969 374.503906 152.796875 374.804688 153.238281 C 375.117188 153.667969 375.5 153.882812 375.957031 153.882812 C 376.410156 153.882812 376.796875 153.667969 377.109375 153.238281 C 377.421875 152.796875 377.578125 151.917969 377.578125 150.601562 C 377.578125 149.273438 377.421875 148.394531 377.109375 147.964844 C 376.796875 147.523438 376.410156 147.300781 375.957031 147.300781 C 375.5 147.300781 375.136719 147.492188 374.863281 147.867188 C 374.523438 148.363281 374.355469 149.273438 374.355469 150.601562 Z M 374.355469 150.601562 "/>
<path style="fill:none;stroke-width:1;stroke-linecap:round;stroke-linejoin:round;stroke:rgb(0%,0%,0%);stroke-opacity:1;stroke-miterlimit:10;" d="M 1149.8 245.8 L 1167.8 245.8 L 1167.8 263.8 L 1149.8 263.8 Z M 1149.8 245.8 " transform="matrix(1.25,0,0,1.25,-1027.5,-145)"/>
<path style=" stroke:none;fill-rule:nonzero;fill:rgb(0%,0%,0%);fill-opacity:1;" d="M 418.496094 175.210938 L 419.433594 175.113281 C 419.511719 175.558594 419.660156 175.882812 419.882812 176.089844 C 420.117188 176.285156 420.414062 176.382812 420.78125 176.382812 C 421.078125 176.382812 421.339844 176.320312 421.5625 176.1875 C 421.796875 176.046875 421.984375 175.855469 422.128906 175.621094 C 422.285156 175.386719 422.40625 175.074219 422.5 174.683594 C 422.601562 174.292969 422.65625 173.890625 422.65625 173.472656 C 422.65625 173.433594 422.648438 173.371094 422.636719 173.277344 C 422.441406 173.589844 422.171875 173.84375 421.835938 174.039062 C 421.496094 174.234375 421.125 174.332031 420.722656 174.332031 C 420.058594 174.332031 419.492188 174.09375 419.023438 173.609375 C 418.566406 173.128906 418.339844 172.492188 418.339844 171.695312 C 418.339844 170.875 418.578125 170.21875 419.0625 169.722656 C 419.542969 169.230469 420.148438 168.980469 420.878906 168.980469 C 421.398438 168.980469 421.875 169.125 422.304688 169.410156 C 422.734375 169.683594 423.058594 170.082031 423.28125 170.601562 C 423.515625 171.125 423.632812 171.878906 423.632812 172.867188 C 423.632812 173.898438 423.519531 174.71875 423.300781 175.328125 C 423.078125 175.941406 422.746094 176.410156 422.304688 176.734375 C 421.859375 177.046875 421.339844 177.203125 420.742188 177.203125 C 420.117188 177.203125 419.601562 177.027344 419.199219 176.675781 C 418.808594 176.324219 418.574219 175.835938 418.496094 175.210938 Z M 422.539062 171.65625 C 422.539062 171.085938 422.382812 170.636719 422.070312 170.308594 C 421.769531 169.972656 421.410156 169.800781 420.996094 169.800781 C 420.550781 169.800781 420.167969 169.984375 419.84375 170.347656 C 419.515625 170.699219 419.355469 171.164062 419.355469 171.734375 C 419.355469 172.242188 419.503906 172.660156 419.804688 172.984375 C 420.117188 173.296875 420.5 173.453125 420.957031 173.453125 C 421.425781 173.453125 421.800781 173.296875 422.089844 172.984375 C 422.386719 172.660156 422.539062 172.21875 422.539062 171.65625 Z M 422.539062 171.65625 "/>
<path style="fill:none;stroke-width:1;stroke-linecap:round;stroke-linejoin:round;stroke:rgb(0%,0%,0%);stroke-opacity:1;stroke-miterlimit:10;" d="M 1149.8 209.8 L 1167.8 209.8 L 1167.8 227.8 L 1149.8 227.8 Z M 1149.8 209.8 " transform="matrix(1.25,0,0,1.25,-1027.5,-145)"/>
<path style=" stroke:none;fill-rule:nonzero;fill:rgb(0%,0%,0%);fill-opacity:1;" d="M 422.070312 132.066406 L 421.074219 132.066406 L 421.074219 125.757812 C 420.839844 125.992188 420.527344 126.226562 420.136719 126.460938 C 419.746094 126.683594 419.398438 126.847656 419.101562 126.949219 L 419.101562 125.992188 C 419.648438 125.746094 420.128906 125.441406 420.546875 125.074219 C 420.960938 124.699219 421.253906 124.332031 421.425781 123.980469 L 422.070312 123.980469 Z M 422.070312 132.066406 "/>
<path style="fill:none;stroke-width:1;stroke-linecap:round;stroke-linejoin:round;stroke:rgb(0%,0%,0%);stroke-opacity:1;stroke-miterlimit:10;" d="M 1113.8 209.8 L 1131.8 209.8 L 1131.8 227.8 L 1113.8 227.8 Z M 1113.8 209.8 " transform="matrix(1.25,0,0,1.25,-1027.5,-145)"/>
<path style=" stroke:none;fill-rule:nonzero;fill:rgb(0%,0%,0%);fill-opacity:1;" d="M 373.339844 128.101562 C 373.339844 127.152344 373.4375 126.382812 373.632812 125.796875 C 373.828125 125.210938 374.113281 124.761719 374.492188 124.449219 C 374.882812 124.136719 375.371094 123.980469 375.957031 123.980469 C 376.398438 123.980469 376.78125 124.074219 377.109375 124.253906 C 377.433594 124.425781 377.699219 124.671875 377.910156 124.996094 C 378.117188 125.324219 378.28125 125.71875 378.398438 126.1875 C 378.527344 126.65625 378.59375 127.296875 378.59375 128.101562 C 378.59375 129.039062 378.496094 129.800781 378.300781 130.386719 C 378.105469 130.960938 377.8125 131.410156 377.421875 131.734375 C 377.042969 132.046875 376.554688 132.203125 375.957031 132.203125 C 375.1875 132.203125 374.582031 131.925781 374.140625 131.363281 C 373.605469 130.699219 373.339844 129.613281 373.339844 128.101562 Z M 374.355469 128.101562 C 374.355469 129.417969 374.503906 130.296875 374.804688 130.738281 C 375.117188 131.167969 375.5 131.382812 375.957031 131.382812 C 376.410156 131.382812 376.796875 131.167969 377.109375 130.738281 C 377.421875 130.296875 377.578125 129.417969 377.578125 128.101562 C 377.578125 126.773438 377.421875 125.894531 377.109375 125.464844 C 376.796875 125.023438 376.410156 124.800781 375.957031 124.800781 C 375.5 124.800781 375.136719 124.992188 374.863281 125.367188 C 374.523438 125.863281 374.355469 126.773438 374.355469 128.101562 Z M 374.355469 128.101562 "/>
<path style=" stroke:none;fill-rule:nonzero;fill:rgb(0%,0%,0%);fill-opacity:1;" d="M 97.703125 153.648438 L 97.703125 151.441406 L 95.515625 151.441406 L 95.515625 150.523438 L 97.703125 150.523438 L 97.703125 148.335938 L 98.640625 148.335938 L 98.640625 150.523438 L 100.828125 150.523438 L 100.828125 151.441406 L 98.640625 151.441406 L 98.640625 153.648438 Z M 97.703125 153.648438 "/>
<path style=" stroke:none;fill-rule:nonzero;fill:rgb(0%,0%,0%);fill-opacity:1;" d="M 183.652344 152.816406 L 183.652344 150.609375 L 181.464844 150.609375 L 181.464844 149.691406 L 183.652344 149.691406 L 183.652344 147.503906 L 184.589844 147.503906 L 184.589844 149.691406 L 186.777344 149.691406 L 186.777344 150.609375 L 184.589844 150.609375 L 184.589844 152.816406 Z M 183.652344 152.816406 "/>
<path style=" stroke:none;fill-rule:nonzero;fill:rgb(0%,0%,0%);fill-opacity:1;" d="M 269.1875 152.816406 L 269.1875 150.609375 L 267 150.609375 L 267 149.691406 L 269.1875 149.691406 L 269.1875 147.503906 L 270.125 147.503906 L 270.125 149.691406 L 272.3125 149.691406 L 272.3125 150.609375 L 270.125 150.609375 L 270.125 152.816406 Z M 269.1875 152.816406 "/>
<path style=" stroke:none;fill-rule:nonzero;fill:rgb(0%,0%,0%);fill-opacity:1;" d="M 358.6875 149.085938 L 353.375 149.085938 L 353.375 148.148438 L 358.6875 148.148438 Z M 358.6875 151.527344 L 353.375 151.527344 L 353.375 150.589844 L 358.6875 150.589844 Z M 358.6875 151.527344 "/>
<path style="fill:none;stroke-width:1;stroke-linecap:round;stroke-linejoin:round;stroke:rgb(0%,0%,0%);stroke-opacity:1;stroke-miterlimit:10;" d="M 973.35 145 L 1033.35 145 L 1033.35 180 L 973.35 180 Z M 973.35 145 " transform="matrix(1.25,0,0,1.25,-1027.5,-145)"/>
<path style=" stroke:none;fill-rule:nonzero;fill:rgb(0%,0%,0%);fill-opacity:1;" d="M 206.902344 56.40625 L 206.902344 58.105469 L 205.671875 58.105469 C 205.984375 57.382812 206.277344 56.542969 206.550781 55.566406 L 208.894531 55.566406 L 208.894531 54.785156 L 206.746094 54.785156 C 206.863281 54.335938 206.960938 53.886719 207.058594 53.398438 L 206.296875 53.28125 C 206.179688 53.808594 206.082031 54.316406 205.964844 54.785156 L 204.636719 54.785156 L 204.636719 55.566406 L 205.769531 55.566406 C 205.476562 56.601562 205.183594 57.441406 204.851562 58.125 L 205.027344 58.847656 L 206.902344 58.847656 L 206.902344 60.527344 C 206.199219 60.664062 205.4375 60.761719 204.617188 60.859375 L 204.734375 61.660156 C 205.496094 61.5625 206.21875 61.445312 206.902344 61.328125 L 206.902344 63.613281 L 207.683594 63.613281 L 207.683594 61.171875 C 208.230469 61.054688 208.738281 60.917969 209.246094 60.78125 L 209.246094 60.019531 C 208.757812 60.15625 208.230469 60.273438 207.683594 60.390625 L 207.683594 58.847656 L 208.933594 58.847656 L 208.933594 58.105469 L 207.683594 58.105469 L 207.683594 56.40625 Z M 209.402344 54.785156 L 209.402344 55.566406 L 211.023438 55.566406 C 210.925781 55.996094 210.828125 56.425781 210.730469 56.855469 L 209.089844 56.855469 L 209.089844 57.636719 L 210.535156 57.636719 C 210.339844 58.378906 210.125 59.082031 209.910156 59.785156 L 213.679688 59.785156 C 213.269531 60.449219 212.742188 61.054688 212.078125 61.660156 C 211.550781 61.367188 211.003906 61.074219 210.417969 60.839844 L 209.988281 61.484375 C 211.238281 61.992188 212.429688 62.714844 213.601562 63.613281 L 214.050781 62.929688 C 213.640625 62.617188 213.191406 62.324219 212.742188 62.03125 C 213.542969 61.269531 214.128906 60.507812 214.5 59.746094 L 214.5 59.0625 L 210.90625 59.0625 C 211.0625 58.632812 211.199219 58.164062 211.335938 57.636719 L 215.007812 57.636719 L 215.007812 56.855469 L 211.53125 56.855469 L 211.824219 55.566406 L 214.714844 55.566406 L 214.714844 54.785156 L 211.980469 54.785156 C 212.078125 54.316406 212.15625 53.828125 212.234375 53.339844 L 211.453125 53.261719 C 211.355469 53.789062 211.257812 54.296875 211.179688 54.785156 Z M 209.402344 54.785156 "/>
<path style=" stroke:none;fill-rule:nonzero;fill:rgb(0%,0%,0%);fill-opacity:1;" d="M 216.238281 56.484375 L 216.238281 57.109375 L 220.515625 57.109375 C 220.476562 57.324219 220.4375 57.539062 220.398438 57.753906 L 217.664062 57.753906 L 217.664062 62.714844 L 216.042969 62.714844 L 216.042969 63.359375 L 226.101562 63.359375 L 226.101562 62.714844 L 224.480469 62.714844 L 224.480469 57.753906 L 221.199219 57.753906 C 221.257812 57.558594 221.296875 57.34375 221.335938 57.109375 L 225.90625 57.109375 L 225.90625 56.484375 L 221.414062 56.484375 L 221.492188 55.839844 L 225.144531 55.839844 L 225.144531 53.730469 L 216.980469 53.730469 L 216.980469 55.839844 L 220.671875 55.839844 L 220.613281 56.484375 Z M 218.445312 62.714844 L 218.445312 61.972656 L 223.679688 61.972656 L 223.679688 62.714844 Z M 218.445312 61.464844 L 218.445312 60.761719 L 223.679688 60.761719 L 223.679688 61.464844 Z M 218.445312 60.234375 L 218.445312 59.53125 L 223.679688 59.53125 L 223.679688 60.234375 Z M 218.445312 59.023438 L 218.445312 58.320312 L 223.679688 58.320312 L 223.679688 59.023438 Z M 224.363281 55.273438 L 222.703125 55.273438 L 222.703125 54.335938 L 224.363281 54.335938 Z M 221.960938 55.273438 L 220.164062 55.273438 L 220.164062 54.335938 L 221.960938 54.335938 Z M 219.441406 55.273438 L 217.761719 55.273438 L 217.761719 54.335938 L 219.441406 54.335938 Z M 219.441406 55.273438 "/>
<path style=" stroke:none;fill-rule:nonzero;fill:rgb(0%,0%,0%);fill-opacity:1;" d="M 229.636719 53.457031 L 228.914062 53.710938 C 229.246094 54.160156 229.558594 54.6875 229.851562 55.273438 L 230.535156 54.960938 C 230.28125 54.433594 229.988281 53.945312 229.636719 53.457031 Z M 235.164062 53.457031 C 234.890625 54.023438 234.558594 54.511719 234.128906 54.921875 L 234.773438 55.292969 C 235.222656 54.84375 235.59375 54.316406 235.886719 53.730469 Z M 228.132812 55.351562 L 228.132812 56.09375 L 231.394531 56.09375 C 231.21875 56.484375 230.984375 56.875 230.730469 57.226562 L 227.488281 57.226562 L 227.488281 57.96875 L 230.164062 57.96875 C 229.382812 58.847656 228.386719 59.570312 227.175781 60.097656 L 227.625 60.800781 C 228.367188 60.449219 229.050781 60.019531 229.65625 59.53125 L 229.65625 62.597656 C 229.65625 63.183594 229.988281 63.476562 230.671875 63.476562 L 234.832031 63.476562 C 235.4375 63.476562 235.828125 63.378906 236.0625 63.222656 C 236.296875 63.007812 236.453125 62.460938 236.550781 61.582031 L 235.75 61.328125 C 235.691406 61.894531 235.59375 62.265625 235.476562 62.480469 C 235.378906 62.636719 235.085938 62.734375 234.617188 62.734375 L 231.003906 62.734375 C 230.652344 62.734375 230.476562 62.597656 230.476562 62.34375 L 230.476562 59.804688 L 234.089844 59.804688 L 234.089844 60.644531 C 234.089844 60.878906 233.933594 60.996094 233.640625 60.996094 C 233.171875 60.996094 232.664062 60.976562 232.097656 60.957031 L 232.273438 61.660156 C 232.820312 61.679688 233.367188 61.699219 233.953125 61.699219 C 234.558594 61.660156 234.871094 61.386719 234.890625 60.859375 L 234.890625 59.335938 C 235.457031 59.804688 236.140625 60.253906 236.941406 60.683594 L 237.46875 60.019531 C 236.101562 59.414062 235.085938 58.75 234.480469 57.96875 L 237.136719 57.96875 L 237.136719 57.226562 L 231.667969 57.226562 C 231.882812 56.875 232.058594 56.484375 232.253906 56.09375 L 236.511719 56.09375 L 236.511719 55.351562 L 232.527344 55.351562 C 232.722656 54.746094 232.898438 54.082031 233.015625 53.378906 L 232.214844 53.28125 C 232.097656 54.023438 231.921875 54.707031 231.707031 55.351562 Z M 231.160156 57.96875 L 233.660156 57.96875 C 233.914062 58.359375 234.226562 58.730469 234.617188 59.082031 L 230.164062 59.082031 C 230.515625 58.75 230.847656 58.378906 231.160156 57.96875 Z M 231.160156 57.96875 "/>
<path style=" stroke:none;fill-rule:nonzero;fill:rgb(0%,0%,0%);fill-opacity:1;" d="M 238.796875 55.039062 C 239.34375 54.980469 239.851562 54.882812 240.339844 54.785156 L 240.339844 56.386719 L 238.679688 56.386719 L 238.679688 57.167969 L 240.300781 57.167969 C 239.910156 58.476562 239.246094 59.628906 238.347656 60.644531 L 238.679688 61.484375 C 239.363281 60.605469 239.910156 59.589844 240.339844 58.496094 L 240.339844 63.574219 L 241.101562 63.574219 L 241.101562 58.4375 C 241.433594 58.886719 241.824219 59.511719 242.292969 60.292969 L 242.742188 59.628906 C 242.175781 58.925781 241.648438 58.300781 241.101562 57.734375 L 241.101562 57.167969 L 242.488281 57.167969 L 242.488281 56.386719 L 241.101562 56.386719 L 241.101562 54.609375 C 241.570312 54.492188 242.019531 54.375 242.429688 54.21875 L 242.136719 53.457031 C 241.140625 53.867188 239.96875 54.121094 238.640625 54.257812 Z M 243.152344 53.984375 L 243.152344 59.21875 L 248.015625 59.21875 L 248.015625 53.984375 Z M 247.214844 58.457031 L 243.972656 58.457031 L 243.972656 54.765625 L 247.214844 54.765625 Z M 244.128906 59.941406 C 243.621094 61.191406 242.996094 62.265625 242.273438 63.164062 L 242.957031 63.652344 C 243.679688 62.695312 244.324219 61.582031 244.851562 60.292969 Z M 246.882812 59.882812 L 246.238281 60.292969 C 247.019531 61.503906 247.664062 62.617188 248.132812 63.632812 L 248.816406 63.144531 C 248.367188 62.226562 247.722656 61.132812 246.882812 59.882812 Z M 246.882812 59.882812 "/>
</g>
</svg>
